<svg width="329" height="329" viewBox="0 0 329 329" fill="none" xmlns="http://www.w3.org/2000/svg">
<g clip-path="url(#clip0_229_2)">
<path fill-rule="evenodd" clip-rule="evenodd" d="M185.6 1.37001C275.5 13.07 338.8 95.57 327 185.47C325.419 206.319 317.26 225.152 309.793 242.388C296.489 273.1 285.382 298.739 317.6 321.67C318.5 322.37 319.1 323.47 319.1 324.67C319.1 326.77 317.4 328.37 315.4 328.37H164.1C157 328.37 149.9 327.87 142.8 326.97C52.9004 315.17 -10.3996 232.67 1.40036 142.77C13.2004 52.87 95.7004 -10.33 185.6 1.37001ZM232.265 96.1519C231.233 95.0912 230.009 94.5608 228.591 94.5608H188.757C187.339 94.5608 186.115 95.0912 185.083 96.1519C184.052 97.2127 183.536 98.4723 183.536 99.9309V140.704H144.863V99.9309C144.863 98.4723 144.347 97.2127 143.316 96.1519C142.285 95.0912 141.06 94.5608 139.642 94.5608H99.8087C98.3907 94.5608 97.166 95.0912 96.1347 96.1519C95.1034 97.2127 94.5878 98.4723 94.5878 99.9309V228.414C94.5878 230.006 95.1034 231.332 96.1347 232.392C97.166 233.32 98.3907 233.785 99.8087 233.785H139.642C141.06 233.785 142.285 233.254 143.316 232.193C144.347 231.133 144.863 229.873 144.863 228.414V186.051H183.536V228.414C183.536 229.873 184.052 231.133 185.083 232.193C186.115 233.254 187.339 233.785 188.757 233.785H228.591C230.009 233.785 231.233 233.254 232.265 232.193C233.296 231.133 233.812 229.873 233.812 228.414V99.9309C233.812 98.4723 233.296 97.2127 232.265 96.1519Z" fill="#7299D6"/>
</g>
<defs>
<clipPath id="clip0_229_2">
<rect width="328.4" height="328.4" fill="white"/>
</clipPath>
</defs>
</svg>
