<svg fill="none" height="85" viewBox="0 0 375 85" width="375" xmlns="http://www.w3.org/2000/svg" xmlns:xlink="http://www.w3.org/1999/xlink"><clipPath id="a"><path d="m0 0h375v85h-375z"/></clipPath><g clip-path="url(#a)"><path d="m0 0h375v85h-375z" fill="#fff"/><rect fill="#5a78ff" height="84.7634" rx="20" width="375"/><g fill="#fff"><path clip-rule="evenodd" d="m123.148 53.1303h4.003c.316 0 .562-.1408.667-.4923l4.634-14.6593c.071-.2813.351-.2813.457 0l5.512 14.554c.14.3866.351.5976.737.5976h2.493c.351 0 .632-.1759.773-.5976l5.336-14.554c.106-.2813.421-.2813.492 0l4.529 14.6593c.07.2813.281.4923.632.4923h4.248c.421 0 .667-.3164.527-.7735l-6.987-22.569c-.105-.3164-.351-.5625-.667-.5625h-3.582c-.315 0-.596.2812-.702.5625l-5.512 14.2374c-.105.3163-.386.2812-.492 0l-5.547-14.2374c-.105-.2813-.386-.5625-.702-.5625h-3.581c-.316 0-.562.2461-.667.5625l-7.128 22.569c-.14.4923.106.7735.527.7735zm45.608.4569c-5.407 0-9.41-4.0778-9.41-9.2808 0-5.2378 4.003-9.2808 9.41-9.2808 5.442 0 9.409 4.043 9.409 9.2808 0 5.203-3.967 9.2808-9.409 9.2808zm0-4.359c2.563 0 4.634-2.2149 4.634-4.9218 0-2.742-2.071-4.9215-4.634-4.9215-2.528 0-4.635 2.1795-4.635 4.9215 0 2.7069 2.107 4.9218 4.635 4.9218zm22.61 4.359c-2.071 0-3.476-.8438-4.775-1.8983-.351-.2812-.667-.1759-.667.3164v.4572c0 .3514-.281.6678-.632.6678h-3.3c-.351 0-.667-.3164-.667-.6678v-22.5693c0-.3515.316-.6679.667-.6679h3.476c.351 0 .632.3164.632.6679v6.4334c0 .4568.316.5976.807.2461 1.053-.7735 2.598-1.5471 4.6-1.5471 4.81 0 8.496 4.0781 8.496 9.2808 0 5.203-3.757 9.2808-8.637 9.2808zm-.807-4.3941c2.598 0 4.669-2.1798 4.669-4.8867 0-2.742-2.071-4.9215-4.669-4.9215-2.528 0-4.6 2.1444-4.6 4.9215 0 2.742 2.037 4.8867 4.6 4.8867zm15.026-15.6437c1.44 0 2.669-1.2306 2.669-2.6717 0-1.4414-1.229-2.6718-2.669-2.6718-1.439 0-2.668 1.2304-2.668 2.6718 0 1.4411 1.229 2.6717 2.668 2.6717zm-1.79 19.5809h3.476c.351 0 .667-.3164.667-.6678v-16.3118c0-.3515-.316-.6679-.667-.6679h-3.476c-.351 0-.632.3164-.632.6679v16.3118c0 .3514.281.6678.632.6678zm14.5.1756c.351 0 .667-.2812.667-.6327v-2.8825c0-.3869-.316-.6682-.667-.6682-1.229 0-1.72-.7381-1.72-1.8631v-17.3662c0-.3515-.316-.6679-.667-.6679h-3.476c-.351 0-.632.3164-.632.6679v17.2609c0 4.6402 1.861 6.1518 6.495 6.1518zm11.235.2813c-5.336 0-9.128-3.9022-9.128-9.2102 0-5.3436 3.932-9.3514 9.198-9.3514 5.232 0 9.059 4.0781 9.059 9.4216 0 .6327-.176 1.1601-.808 1.1601h-12.077c-.316 0-.422.1756-.387.4569.246 2.0039 2.001 3.4804 4.284 3.4804 1.509 0 2.598-.6679 3.335-1.5117.386-.422.702-.5625 1.124-.5625h3.23c.561 0 .807.3866.597.9492-1.159 2.9881-4.459 5.1676-8.427 5.1676zm-3.721-10.8275h7.408c.246 0 .351-.1054.316-.3866-.351-1.8632-2.002-3.3045-4.003-3.3045-1.931 0-3.546 1.3708-4.002 3.1991-.07.2458-.035.492.281.492zm16.957 10.3706c-.35 0-.631-.3164-.631-.6678v-22.5693c0-.3515.281-.6679.631-.6679h11.06c5.056 0 8.497 2.953 8.497 7.9096 0 4.8515-3.898 8.0153-8.743 8.0153h-5.863c-.421 0-.632.2461-.632.6678v6.6445c0 .3514-.316.6678-.667.6678zm4.916-12.0578h5.898c2.423 0 3.757-2.0742 3.757-3.9022 0-1.9336-1.299-3.7616-3.757-3.7616h-5.898c-.422 0-.597.211-.597.6327v6.398c0 .422.175.6331.597.6331zm25.314 12.5147c-4.705 0-8.637-3.9724-8.637-9.2808 0-5.3432 4.002-9.2808 8.707-9.2808 2.001 0 3.406.7736 4.669 1.7929.317.2813.668.2462.668-.1756v-.5274c0-.3514.281-.6327.632-.6327h3.3c.351 0 .667.3164.667.6679v11.6361c0 .8789.316 1.2655.913 1.3006.316.0351.597.2461.597.5625v3.0584c0 .3164-.246.5976-.597.5976-2.317 0-3.687-.6678-4.459-2.0036-.211-.3518-.457-.422-.807-.0705-1.405 1.3009-3.02 2.3554-5.653 2.3554zm.807-4.359c2.563 0 4.6-2.1798 4.6-4.9218 0-2.7771-2.037-4.9215-4.6-4.9215-2.598 0-4.634 2.1795-4.634 4.9215 0 2.7069 2.036 4.9218 4.634 4.9218zm13.166 10.7573c5.126 0 7.689-2.1447 10.112-7.8748l6.636-15.7841c.175-.4221-.141-.8438-.597-.8438h-3.336c-.351 0-.526.211-.667.5625l-3.862 9.3861c-.316.7384-.737.7735-1.053.0351l-4.038-9.351c-.14-.3514-.351-.6327-.702-.6327h-3.476c-.421 0-.772.3866-.561.9491l6.46 14.6243c.21.492.281.8789.14 1.4063-.491 2.1443-2.738 3.3747-5.056 3.3747-.351 0-.667.2812-.667.6327v2.8474c0 .3518.316.6682.667.6682z" fill-rule="evenodd"/><path clip-rule="evenodd" d="m91.261 49.8024c3.9327-1.2001 7.2597-1.8034 9.981-1.8103 4.499-.0111 8.272.8831 11.317 2.6828v-13.0874c-3.061-1.587-6.519-2.434-10.375-2.5415-3.856-.1071-7.4969.679-10.923 2.359z" fill-rule="evenodd"/><path clip-rule="evenodd" d="m84.8716 35.553 4.8534 11.5677v-11.0863c2.5571-1.3708 5.2646-2.2497 8.1215-2.636 2.8575-.3863 6.1055-.3239 9.7435.187l-2.64-6.3151c-3.824-.2474-7.4676.3695-10.9294 1.8508-3.4618 1.481-6.5114 3.625-9.149 6.4319z" fill-rule="evenodd"/><path d="m94.473 27.3553c-.425-1.032-1.062-2.5799-1.9118-4.6439-.8941-2.1719-3.3669-3.2117-5.523-2.3217l-13.1958 5.4458c-2.156.8897-3.179 3.3721-2.2848 5.5441l12.7236 30.9093c.8942 2.172 3.3667 3.2115 5.523 2.3218l13.1958-5.4459c2.156-.89 3.179-3.372 2.285-5.5443-.806-1.9574-1.332-3.2346-1.577-3.8319-.718-.0423-1.244-.0678-1.576-.0765-.352-.009-.852-.0102-1.502-.0033.317.7696 1.001 2.4316 2.052 4.986.298.724-.043 1.5515-.761 1.8481l-13.1961 5.4455c-.7186.2969-1.5429-.0498-1.841-.7738l-12.7236-30.909c-.298-.7243.0429-1.5516.7615-1.8481l13.1958-5.4459c.7186-.2966 1.5429.0498 1.8409.7738l1.9322 4.694c.5961-.2912 1.0545-.5013 1.3747-.6298.3206-.1284.7231-.2932 1.2076-.4943z"/></g></g></svg>