<svg fill="none" height="85" viewBox="0 0 375 85" width="375" xmlns="http://www.w3.org/2000/svg" xmlns:xlink="http://www.w3.org/1999/xlink"><clipPath id="a"><path d="m0 0h375v85h-375z"/></clipPath><g clip-path="url(#a)"><path d="m0 0h375v85h-375z" fill="#fff"/><rect fill="#ff5b24" height="84.7634" rx="20" width="375"/><path clip-rule="evenodd" d="m255.46 36.5438c-1.53-5.8364-5.244-8.1535-10.31-8.1535-4.106 0-9.26 2.3171-9.26 7.8939 0 3.604 2.49 6.4347 6.554 7.1657l3.843.6858c2.62.4713 3.365 1.4591 3.365 2.7883 0 1.5015-1.618 2.3595-4.019 2.3595-3.147 0-5.111-1.1148-5.419-4.2475l-5.549.8607c.873 6.0481 6.288 8.5374 11.185 8.5374 4.631 0 9.567-2.6614 9.567-8.0209 0-3.6492-2.229-6.3077-6.378-7.081l-4.236-.7733c-2.359-.429-3.147-1.5861-3.147-2.7037 0-1.4168 1.53-2.3171 3.624-2.3171 2.664 0 4.544.9003 4.631 3.8608l5.549-.8579zm-123.335 9.1808 5.765-16.688h6.771l-10.047 24.754h-5.024l-10.05-24.754h6.771zm35.43-9.6098c0 1.9756-1.572 3.3472-3.406 3.3472-1.835 0-3.407-1.3716-3.407-3.3472s1.572-3.3472 3.407-3.3472c1.834 0 3.406 1.3716 3.406 3.3472zm1.047 8.7518c-2.272 2.9182-4.676 4.9333-8.912 4.9333-4.237 0-7.691-2.5739-10.31-6.3472-1.047-1.5466-2.664-1.8881-3.844-1.0753-1.092.7733-1.355 2.4017-.347 3.8185 3.624 5.447 8.65 8.6248 14.503 8.6248 5.374 0 9.568-2.5739 12.844-6.8637 1.225-1.5861 1.177-3.2174 0-4.1205-1.092-.8608-2.706-.5588-3.931 1.0301zm15.074-3.5165c0 5.0631 2.972 7.7245 6.291 7.7245 3.146 0 6.378-2.4892 6.378-7.7245s-3.232-7.637-6.336-7.637c-3.364 0-6.336 2.3594-6.336 7.637zm0-8.8816v-3.3896h-6.161v33.2942h6.161v-11.8394c2.054 2.7489 4.719 3.906 7.733 3.906 5.636 0 11.139-4.3773 11.139-13.3859 0-9.0087-5.723-12.6578-10.614-12.6578-3.889 0-6.554 1.761-8.255 4.0753h-.003zm29.577 8.8816c0 5.0631 2.972 7.7245 6.291 7.7245 3.147 0 6.378-2.4892 6.378-7.7245s-3.231-7.637-6.336-7.637c-3.364 0-6.336 2.3594-6.336 7.637zm0-8.8816v-3.3896h-6.161v33.2942h6.161v-11.8394c2.055 2.7489 4.719 3.906 7.733 3.906 5.636 0 11.139-4.3773 11.139-13.3859 0-9.0087-5.723-12.6578-10.614-12.6578-3.889 0-6.553 1.761-8.255 4.0753h-.003z" fill="#fff" fill-rule="evenodd"/></g></svg>