<svg fill="none" height="3076" viewBox="0 0 1629 3076" width="1629" xmlns="http://www.w3.org/2000/svg"><path d="m1.51953 2956.44h1299.08047c.26 0 .52-.05.77-.15l35.62-14.82c.25-.1.46-.25.65-.43l245.92-245.8c.18-.18.33-.41.43-.65l14.7-35.62c.1-.25.15-.5.15-.77v-2240.564c0-.261-.05-.521-.15-.762l-14.7-35.625c-.1-.244-.25-.465-.43-.652l-245.92-245.797c-.19-.185-.4-.332-.65-.432l-35.62-14.815c-.25-.101-.51-.153-.77-.153h-1299.08047m0 2718.84h1250.12047c.26 0 .52-.05.77-.15l35.62-14.82c.25-.1.46-.25.65-.43l176.68-176.56c.18-.18.33-.41.43-.65l14.7-35.74c.1-.25.15-.5.15-.76v-2142.415c0-.261-.05-.519-.15-.761l-14.7-35.743c-.1-.245-.25-.467-.43-.654l-176.68-176.557c-.19-.185-.4-.332-.65-.432l-35.62-14.815c-.25-.101-.51-.153-.77-.153h-1250.12047m0 2571.12h1237.88047c.26 0 .52-.05.77-.15l35.62-14.82c.25-.1.46-.25.65-.43l159.56-159.68m-1434.48047 234.12h1262.36047c.26 0 .52-.05.77-.15l35.74-14.82c.24-.1.47-.25.65-.43l193.84-193.96c.18-.18.33-.4.43-.65l14.82-35.62c.1-.24.15-.51.15-.77v-2166.882c0-.263-.05-.523-.15-.766l-14.82-35.745c-.1-.242-.25-.463-.43-.648l-194.04-193.995c-.19-.186-.41-.334-.65-.434l-35.54-14.659c-.25-.1-.51-.151-.77-.151h-1262.36047m0 2689.2h1274.60047c.26 0 .52-.05.77-.15l35.62-14.7c.24-.1.47-.25.65-.43l211.24-211.24c.18-.18.33-.4.43-.65l14.82-35.74c.1-.25.15-.51.15-.77v-2191.481c0-.263-.05-.524-.15-.768l-14.82-35.625c-.1-.242-.25-.461-.43-.646l-211.24-211.238c-.18-.186-.41-.334-.65-.434l-35.62-14.697c-.25-.1-.51-.151-.77-.151h-1274.60047m0 2748.36h1286.84047c.26 0 .52-.05.77-.15l35.62-14.82c.25-.1.46-.25.65-.43l228.64-228.52c.18-.18.33-.41.43-.65l14.7-35.74c.1-.25.15-.5.15-.77v-2215.964c0-.261-.05-.521-.15-.762l-14.7-35.625c-.1-.244-.25-.465-.43-.652l-228.64-228.517c-.19-.185-.4-.332-.65-.432l-35.62-14.815c-.25-.101-.51-.153-.77-.153h-1286.84047m829.08047 2530.68h-829.08047m1370.88047 367.08h-1067.28m525.48-740.4h89.531c.531 0 1.039-.21 1.414-.59l26.669-26.66c.375-.38.586-.89.586-1.42v-1479.382c0-.53-.211-1.039-.586-1.414l-26.669-26.668c-.375-.375-.883-.586-1.414-.586h-89.531m0 1566.24h119.051c.531 0 1.039-.21 1.414-.59l26.669-26.66c.375-.38.586-.89.586-1.42l.119-1538.419c0-.532-.211-1.042-.588-1.417l-26.786-26.671c-.375-.374-.882-.583-1.411-.583h-119.054m0 1625.4h148.686c.533 0 1.045-.21 1.42-.59l26.674-26.91c.37-.37.58-.88.58-1.4v-1597.472c0-.53-.21-1.039-.59-1.414l-26.665-26.668c-.375-.375-.883-.586-1.414-.586h-148.691m0 1684.56h178.21c.53 0 1.04-.21 1.42-.59l26.67-26.78c.37-.38.58-.89.58-1.42v-1656.502c0-.53-.21-1.039-.59-1.414l-26.78-26.788c-.38-.375-.89-.586-1.42-.586h-178.09m0 1743.6h207.73c.53 0 1.04-.21 1.42-.59l26.66-26.66c.38-.38.59-.89.59-1.42v-1715.782c0-.53-.21-1.039-.59-1.414l-26.66-26.668c-.38-.375-.89-.586-1.42-.586h-207.73m0 1802.64h237.25c.53 0 1.04-.21 1.41-.58l26.79-26.67c.38-.38.59-.89.59-1.42l-.12-1774.939c0-.532-.21-1.042-.59-1.417l-26.67-26.551c-.37-.373-.88-.583-1.41-.583h-237.25m0 1861.8h266.89c.53 0 1.04-.21 1.42-.59l26.66-26.66c.38-.38.59-.89.59-1.42v-1834.102c0-.53-.21-1.039-.59-1.414l-26.66-26.668c-.38-.375-.89-.586-1.42-.586h-266.89m0 1920.96h285.85c.53 0 1.04-.21 1.42-.59l37.22-37.22c.38-.38.59-.89.59-1.42v-1872.022c0-.53-.21-1.039-.59-1.414l-37.22-37.228c-.38-.375-.89-.586-1.42-.586h-285.85m298.92 1980h-298.92m0 29.52h311c.26 0 .52-.05.77-.15l35.62-14.82c.25-.1.46-.25.65-.43l20.84-20.84m-368.88 65.88h323.24c.26 0 .52-.05.77-.15l35.38-14.7c.24-.1.46-.25.65-.43l38.32-38.32c.18-.18.33-.4.43-.65l14.82-35.62c.1-.24.15-.51.15-.77v-1946.96m-413.76 2067.12h335.48c.26 0 .52-.05.77-.15l35.38-14.7c.25-.1.46-.25.65-.43l55.72-55.6c.18-.18.33-.41.43-.65l14.7-35.62c.1-.25.15-.5.15-.77v-1971.044c0-.261-.05-.521-.15-.762l-14.7-35.624c-.1-.244-.25-.466-.43-.653l-55.72-55.597c-.19-.185-.4-.332-.65-.432l-35.38-14.695c-.25-.101-.51-.153-.77-.153h-335.48m0 2216.4h347.6c.26 0 .52-.05.77-.15l35.62-14.7c.24-.1.47-.25.65-.43l72.76-72.88c.18-.18.33-.4.43-.65l14.82-35.62c.1-.24.15-.51.15-.77v-1995.521c0-.263-.05-.524-.15-.768l-14.82-35.626c-.1-.241-.25-.46-.43-.645l-72.76-72.877c-.18-.187-.41-.335-.65-.436l-35.62-14.696c-.25-.1-.51-.151-.77-.151h-347.6m-829.08047 2305.08h1201.16047c.26 0 .52-.05.77-.15l35.62-14.82c.25-.1.46-.25.65-.43l107.44-107.44c.18-.18.33-.41.43-.65l14.7-35.62c.1-.25.15-.5.15-.77v-2044.484c0-.261-.05-.521-.15-.762l-14.7-35.625c-.1-.244-.25-.465-.43-.651l-107.44-107.438c-.19-.185-.4-.332-.65-.432l-35.62-14.815c-.25-.101-.51-.153-.77-.153h-1201.16047m0 2393.76h1213.40047c.26 0 .52-.05.77-.15l35.62-14.7c.24-.1.47-.25.65-.43l124.72-124.84c.18-.18.33-.4.43-.65l14.82-35.62c.1-.24.15-.51.15-.77v-2068.961c0-.263-.05-.524-.15-.768l-14.82-35.626c-.1-.241-.25-.46-.43-.645l-124.72-124.837c-.18-.187-.41-.335-.65-.436l-35.62-14.696c-.25-.1-.51-.151-.77-.151h-1213.40047m0 2452.8h1225.64047c.26 0 .52-.05.77-.15l35.62-14.7c.24-.1.47-.25.65-.43l142-142.12c.18-.18.33-.4.43-.65l14.82-35.62c.1-.24.15-.51.15-.77v-2093.441c0-.263-.05-.524-.15-.768l-14.82-35.625c-.1-.242-.25-.461-.43-.646l-142-142.117c-.18-.187-.41-.335-.65-.435l-35.62-14.697c-.25-.1-.51-.151-.77-.151h-1225.64047m303.60047 2722.08h1067.28m-1370.88047-349.08h43.43997m0-62.4h-43.43997m0 9.84h558.12047m-514.6805 62.4v-382.12c0-1.1-.8954-2-2-2h-39.43997c-1.10456 0-2 .9-2 2v691.4c0 1.1.89543 2 2 2h301.60047m-260.1605-445.92h-43.43997m0 9.84h558.12047m-514.6805-72.24h-43.43997m0 9.84h558.12047m-514.6805-72.24h-43.43997m0 9.96h558.12047m-514.6805-72.24h-43.43997m0 9.84h558.12047m-558.12047-62.4h558.12047m0 374.28v-382.12c0-1.1-.896-2-2-2h-51.2c-1.105 0-2 .9-2 2v7.84m-197.64 0v374.28m-13.08-374.28v374.28m210.72-62.4v-7.84c0-1.1.895-2 2-2h53.2m0 62.4h-54.2c-1.105 0-2 .9-2 2v7.84m1-124.8v-7.84c0-1.1.895-2 2-2h53.2m-55.2-52.56v-7.84c0-1.1.895-2 2-2h53.2m-55.2-52.44v-7.96c0-1.1.895-2 2-2h53.2m-55.2-52.44v-7.84c0-1.1.895-2 2-2h53.2m684.72-1793.64-14.97-35.994c-.1-.242-.25-.461-.43-.646l-38.32-38.319c-.19-.186-.41-.333-.65-.433l-35.38-14.695c-.25-.101-.51-.153-.77-.153h-323.24m413.76 90.24v1946.88m-325.08-529.2h354.6l324.96-39.36m-679.56 39.36v266.05c0 .53-.211 1.04-.586 1.42l-26.789 26.78c-.375.38-.883.59-1.414.59h-57.891c-1.105 0-2 .9-2 2v409.64c0 1.1.895 2 2 2h357.84c.26 0 .52-.05.77-.15l35.62-14.7c.24-.1.47-.25.65-.43l90.04-90.16c.18-.18.33-.4.43-.65l14.82-35.62c.1-.24.15-.51.15-.77v-2020.001c0-.263-.05-.524-.15-.768l-14.82-35.626c-.1-.241-.25-.46-.43-.645l-90.04-90.159c-.19-.186-.4-.333-.65-.434l-35.62-14.814c-.25-.101-.51-.153-.77-.153h-357.84c-1.105 0-2 .895-2 2v409.76c0 1.105.895 2 2 2h57.891c.531 0 1.039.211 1.414.586l26.789 26.788c.375.375.586.884.586 1.414v265.332m0 888.72v-888.72m679.56 967.56-324.96-39.36h-354.6m679.56-411.6-324.96-39.36h-354.6m516.84 1063.2 14.85-35.99c.1-.25.15-.5.15-.77v-2117.925c0-.261-.05-.519-.15-.761l-14.85-36.114m-270.24 2085.6-36.12 15m36.24-15 3.93-4.05c.18-.18.32-.39.42-.62l14.85-35.77m-265.92-1394.04h354.6l324.96 39.48m-384 1366.2-15.36 36.6m15.36-36v-1922.597c0-.266-.05-.529-.16-.774l-15.05-35.867c-.1-.239-.24-.456-.43-.64l-20.56-20.562c-.19-.185-.4-.332-.65-.432l-35.62-14.815c-.25-.101-.51-.153-.77-.153h-311m339.6 2019.84 14.85-35.75c.1-.24.15-.51.15-.77v-1898.563c0-.262-.05-.522-.15-.764l-14.27-34.469c-.1-.251-.26-.478-.45-.667l-4.18-4.069c-.18-.177-.39-.318-.62-.415l-35.4-14.7c-.25-.101-.51-.153-.77-.153h-298.76m768.24 932.16-324.96 39.48h-354.6m-414.84-1108.56v7.84c0 1.105.895 2 2 2h53.2m-55.2 364.44v7.24c0 1.104.895 2 2 2h51.2c1.104 0 2-.896 2-2v-381.52m817.56-367.6001h-1056.24m1056.24 0v-25.57127c0-1.10457-.9-2-2-2h-1052.24c-1.105 0-2 .89543-2 2v81.89127m1056.24-56.32v27.84m-1375.68047 210.6401h1237.88047c.26 0 .52.052.77.153l35.62 14.815c.25.1.46.247.65.432l159.56 159.56m-605.4-45.84h-829.08047m0 9.84h44.99997m0 62.4h-44.99997m44.99997-72.24v382.12c0 1.104-.8954 2-2 2h-40.99997c-1.10457 0-2-.896-2-2v-691.4001c0-1.1045.89542-2 1.99999-2h317.44048m-319.44047 373.6801h558.12047m1039.2 555.84-324.96 39.36h-354.6m-872.7605-522.96h-44.99997m0-9.84h558.12047m-513.1205 72.24h-44.99997m0-9.96h558.12047m-513.1205 72.24h-44.99997m0-9.84h558.12047m-513.1205 72.24h-44.99997m0-9.84h558.12047m-558.12047 62.4h558.12047m-252.84 0v-374.28m-13.08 374.28v-374.28m210.72 62.4v7.84c0 1.105.895 2 2 2h53.2m-55.2 52.56v7.84c0 1.104.895 2 2 2h53.2m-55.2 52.44v7.96c0 1.105.895 2 2 2h53.2m-55.2 52.44v7.84c0 1.105.895 2 2 2h53.2m-55.2 52.56v7.84c0 1.105.895 2 2 2h53.2m817.56-661.4801h-1056.24m1056.24 0v26.48c0 1.1046-.9 2-2 2h-1054.24m-15.84 2905.9201h1065.28c1.1 0 2 .9 2 2v79.76c0 1.1-.9 2-2 2h-1063.28c-1.105 0-2-.9-2-2z" stroke="#9e9e9e" stroke-linecap="round" stroke-linejoin="round" stroke-width="2"/><g clip-rule="evenodd" fill-rule="evenodd"><path d="m1299.66 557.272c2.68-.618 4.35-3.293 3.73-5.972-.62-2.68-3.29-4.351-5.97-3.732-2.68.618-4.35 3.293-3.73 5.972.62 2.68 3.29 4.351 5.97 3.732z" fill="#9e9e9e"/><path d="m1388.34 557.272c2.68-.618 4.35-3.293 3.73-5.972-.62-2.68-3.29-4.351-5.97-3.732-2.68.618-4.35 3.293-3.73 5.972.62 2.68 3.29 4.351 5.97 3.732z" fill="#9e9e9e"/><path d="m1299.66 885.712c2.68-.619 4.35-3.293 3.73-5.972-.62-2.68-3.29-4.351-5.97-3.732-2.68.618-4.35 3.293-3.73 5.972.62 2.68 3.29 4.351 5.97 3.732z" fill="#9e9e9e"/><path d="m1299.66 1214.03c2.68-.62 4.35-3.29 3.73-5.97s-3.29-4.35-5.97-3.73-4.35 3.29-3.73 5.97 3.29 4.35 5.97 3.73z" fill="#9e9e9e"/><path d="m1388.34 1214.03c2.68-.62 4.35-3.29 3.73-5.97s-3.29-4.35-5.97-3.73-4.35 3.29-3.73 5.97 3.29 4.35 5.97 3.73z" fill="#9e9e9e"/><path d="m1299.66 1542.35c2.68-.62 4.35-3.29 3.73-5.97s-3.29-4.35-5.97-3.73-4.35 3.29-3.73 5.97 3.29 4.35 5.97 3.73z" fill="#9e9e9e"/><path d="m1388.34 1542.35c2.68-.62 4.35-3.29 3.73-5.97s-3.29-4.35-5.97-3.73-4.35 3.29-3.73 5.97 3.29 4.35 5.97 3.73z" fill="#9e9e9e"/><path d="m1299.66 1870.79c2.68-.62 4.35-3.29 3.73-5.97s-3.29-4.35-5.97-3.73-4.35 3.29-3.73 5.97 3.29 4.35 5.97 3.73z" fill="#9e9e9e"/><path d="m1388.34 1870.79c2.68-.62 4.35-3.29 3.73-5.97s-3.29-4.35-5.97-3.73-4.35 3.29-3.73 5.97 3.29 4.35 5.97 3.73z" fill="#9e9e9e"/><path d="m1299.66 2856.47c2.68-.62 4.35-3.29 3.73-5.97s-3.29-4.35-5.97-3.73-4.35 3.29-3.73 5.97 3.29 4.35 5.97 3.73z" fill="#9e9e9e"/><path d="m1388.34 2856.47c2.68-.62 4.35-3.29 3.73-5.97s-3.29-4.35-5.97-3.73-4.35 3.29-3.73 5.97 3.29 4.35 5.97 3.73z" fill="#9e9e9e"/><path d="m1109.22 53.2723c2.68-.6188 4.35-3.2929 3.73-5.9727-.62-2.6799-3.29-4.3507-5.97-3.7319s-4.35 3.2929-3.73 5.9728c.62 2.6798 3.29 4.3506 5.97 3.7318z" fill="#9e9e9e"/><path d="m1299.66 2528.15c2.68-.62 4.35-3.29 3.73-5.97s-3.29-4.35-5.97-3.73-4.35 3.29-3.73 5.97 3.29 4.35 5.97 3.73z" fill="#9e9e9e"/><path d="m1388.34 2528.15c2.68-.62 4.35-3.29 3.73-5.97s-3.29-4.35-5.97-3.73-4.35 3.29-3.73 5.97 3.29 4.35 5.97 3.73z" fill="#9e9e9e"/><path d="m1299.66 2199.71c2.68-.62 4.35-3.29 3.73-5.97s-3.29-4.35-5.97-3.73-4.35 3.29-3.73 5.97 3.29 4.35 5.97 3.73z" fill="#9e9e9e"/><path d="m1388.34 2199.71c2.68-.62 4.35-3.29 3.73-5.97s-3.29-4.35-5.97-3.73-4.35 3.29-3.73 5.97 3.29 4.35 5.97 3.73z" fill="#9e9e9e"/><path d="m1109.22 3020.63c2.68-.62 4.35-3.29 3.73-5.97s-3.29-4.35-5.97-3.73-4.35 3.29-3.73 5.97 3.29 4.35 5.97 3.73z" fill="#9e9e9e"/><path d="m570.66 3020.63c2.68-.62 4.351-3.29 3.732-5.97s-3.293-4.35-5.973-3.73-4.35 3.29-3.732 5.97c.619 2.68 3.293 4.35 5.973 3.73z" fill="#9e9e9e"/><path d="m839.859 3020.63c2.68-.62 4.351-3.29 3.732-5.97s-3.293-4.35-5.973-3.73c-2.679.62-4.35 3.29-3.731 5.97.618 2.68 3.293 4.35 5.972 3.73z" fill="#9e9e9e"/><path d="m570.66 52.7523c2.68-.6188 4.351-3.2929 3.732-5.9728-.619-2.6798-3.293-4.3506-5.973-3.7318s-4.35 3.2929-3.732 5.9727c.619 2.6799 3.293 4.3507 5.973 3.7319z" fill="#9e9e9e"/><path d="m839.94 52.7523c2.68-.6188 4.351-3.2929 3.732-5.9728-.619-2.6798-3.293-4.3506-5.972-3.7318-2.68.6188-4.351 3.2929-3.732 5.9727.618 2.6799 3.293 4.3507 5.972 3.7319z" fill="#9e9e9e"/><path d="m1299.66 228.952c2.68-.618 4.35-3.293 3.73-5.972-.62-2.68-3.29-4.351-5.97-3.732-2.68.618-4.35 3.293-3.73 5.972.62 2.68 3.29 4.351 5.97 3.732z" fill="#9e9e9e"/><path d="m1388.34 228.952c2.68-.618 4.35-3.293 3.73-5.972-.62-2.68-3.29-4.351-5.97-3.732-2.68.618-4.35 3.293-3.73 5.972.62 2.68 3.29 4.351 5.97 3.732z" fill="#9e9e9e"/><path d="m1388.34 885.712c2.68-.619 4.35-3.293 3.73-5.972-.62-2.68-3.29-4.351-5.97-3.732-2.68.618-4.35 3.293-3.73 5.972.62 2.68 3.29 4.351 5.97 3.732z" fill="#9e9e9e"/><path d="m1612.03 2080.4c0-2.76 2.24-5 5-5h6.44c2.76 0 5 2.24 5 5v498.92c0 2.76-2.24 5-5 5h-6.44c-2.76 0-5-2.24-5-5z" fill="#7299d6"/><path d="m1582.48 2065.7c0-2.76 2.24-5 5-5h6.44c2.76 0 5 2.24 5 5v513.62c0 2.76-2.24 5-5 5h-6.44c-2.76 0-5-2.24-5-5z" fill="#7299d6"/><path d="m1405.18 2048.12c0-2.76 2.24-5 5-5h6.44c2.76 0 5 2.24 5 5v514.22c0 2.76-2.24 5-5 5h-6.44c-2.76 0-5-2.24-5-5z" fill="#7299d6"/><path d="m1552.93 2065.7c0-2.76 2.24-5 5-5h6.44c2.76 0 5 2.24 5 5v513.62c0 2.76-2.24 5-5 5h-6.44c-2.76 0-5-2.24-5-5z" fill="#7299d6"/><path d="m1375.62 2216.96c0-2.76 2.24-5 5-5h6.44c2.77 0 5 2.24 5 5v294.08c0 2.76-2.23 5-5 5h-6.44c-2.76 0-5-2.24-5-5z" fill="#7299d6"/><path d="m1375.62 2541.32c0-2.76 2.24-5 5-5h6.44c2.77 0 5 2.24 5 5v20.96c0 2.76-2.23 5-5 5h-6.44c-2.76 0-5-2.24-5-5z" fill="#7299d6"/><path d="m1375.62 2048.12c0-2.76 2.24-5 5-5h6.44c2.77 0 5 2.24 5 5v122.85c0 2.76-2.23 5-5 5h-6.44c-2.76 0-5-2.24-5-5z" fill="#7299d6"/><path d="m1523.38 2065.7c0-2.76 2.24-5 5-5h6.44c2.76 0 5 2.24 5 5v513.62c0 2.76-2.24 5-5 5h-6.44c-2.76 0-5-2.24-5-5z" fill="#7299d6"/><path d="m1346.07 2048.12c0-2.76 2.24-5 5-5h6.44c2.77 0 5 2.24 5 5v497.12c0 2.76-2.23 5-5 5h-6.44c-2.76 0-5-2.24-5-5z" fill="#7299d6"/><path d="m1493.83 2065.7c0-2.76 2.24-5 5-5h6.44c2.76 0 5 2.24 5 5v513.62c0 2.76-2.24 5-5 5h-6.44c-2.76 0-5-2.24-5-5z" fill="#7299d6"/><path d="m1316.52 2048.12c0-2.76 2.24-5 5-5h6.44c2.76 0 5 2.24 5 5v480.14c0 2.76-2.24 5-5 5h-6.44c-2.76 0-5-2.24-5-5z" fill="#7299d6"/><path d="m1464.28 2065.7c0-2.76 2.24-5 5-5h6.44c2.76 0 5 2.24 5 5v513.62c0 2.76-2.24 5-5 5h-6.44c-2.76 0-5-2.24-5-5z" fill="#7299d6"/><path d="m1286.97 2216.96c0-2.76 2.24-5 5-5h6.44c2.76 0 5 2.24 5 5v294.08c0 2.76-2.24 5-5 5h-6.44c-2.76 0-5-2.24-5-5z" fill="#7299d6"/><path d="m1286.97 2030.12c0-2.76 2.24-5 5-5h6.44c2.76 0 5 2.24 5 5v139.4c0 2.76-2.24 5-5 5h-6.44c-2.76 0-5-2.24-5-5z" fill="#7299d6"/><path d="m1434.73 2048.12c0-2.76 2.24-5 5-5h6.44c2.76 0 5 2.24 5 5v531.2c0 2.76-2.24 5-5 5h-6.44c-2.76 0-5-2.24-5-5z" fill="#7299d6"/><path d="m1257.42 2030.12c0-2.76 2.24-5 5-5h6.44c2.76 0 5 2.24 5 5v480.92c0 2.76-2.24 5-5 5h-6.44c-2.76 0-5-2.24-5-5z" fill="#7299d6"/><path d="m1227.87 2030.12c0-2.76 2.24-5 5-5h6.44c2.76 0 5 2.24 5 5v464.84c0 2.76-2.24 5-5 5h-6.44c-2.76 0-5-2.24-5-5z" fill="#7299d6"/><path d="m1198.32 2030.12c0-2.76 2.24-5 5-5h6.44c2.76 0 5 2.24 5 5v464.84c0 2.76-2.24 5-5 5h-6.44c-2.76 0-5-2.24-5-5z" fill="#7299d6"/><path d="m1168.77 2030.12c0-2.76 2.24-5 5-5h6.44c2.76 0 5 2.24 5 5v447.8c0 2.76-2.24 5-5 5h-6.44c-2.76 0-5-2.24-5-5z" fill="#7299d6"/><path d="m1139.22 2030.12c0-2.76 2.24-5 5-5h6.44c2.76 0 5 2.24 5 5v429.8c0 2.76-2.24 5-5 5h-6.44c-2.76 0-5-2.24-5-5z" fill="#7299d6"/><path d="m1109.67 2030.12c0-2.76 2.23-5 5-5h6.44c2.76 0 5 2.24 5 5v392.96c0 2.76-2.24 5-5 5h-6.44c-2.77 0-5-2.24-5-5z" fill="#7299d6"/><path d="m1080.12 2030.12c0-2.76 2.23-5 5-5h6.43c2.77 0 5 2.24 5 5v374.48c0 2.76-2.23 5-5 5h-6.43c-2.77 0-5-2.24-5-5z" fill="#7299d6"/><path d="m1050.56 2030.12c0-2.76 2.24-5 5-5h6.44c2.77 0 5 2.24 5 5v337.64c0 2.76-2.23 5-5 5h-6.44c-2.76 0-5-2.24-5-5z" fill="#7299d6"/><path d="m1021.01 2030.12c0-2.76 2.24-5 5-5h6.44c2.76 0 5 2.24 5 5v319.16c0 2.76-2.24 5-5 5h-6.44c-2.76 0-5-2.24-5-5z" fill="#7299d6"/><path d="m991.463 2030.12c0-2.76 2.238-5 5-5h6.437c2.76 0 5 2.24 5 5v282.2c0 2.76-2.24 5-5 5h-6.437c-2.762 0-5-2.24-5-5z" fill="#7299d6"/><path d="m961.912 2030.12c0-2.76 2.239-5 5-5h6.44c2.761 0 5 2.24 5 5v245.12c0 2.76-2.239 5-5 5h-6.44c-2.761 0-5-2.24-5-5z" fill="#7299d6"/><path d="m932.36 2030.12c0-2.76 2.239-5 5-5h6.44c2.761 0 5 2.24 5 5v226.88c0 2.76-2.239 5-5 5h-6.44c-2.761 0-5-2.24-5-5z" fill="#7299d6"/><path d="m577.76 2708.66c0-2.76 2.238-5 5-5h242.84c2.761 0 5 2.24 5 5v6.44c0 2.76-2.239 5-5 5h-242.84c-2.762 0-5-2.24-5-5z" fill="#7299d6"/><path d="m577.76 2738.18c0-2.76 2.238-5 5-5h242.84c2.761 0 5 2.24 5 5v6.44c0 2.76-2.239 5-5 5h-242.84c-2.762 0-5-2.24-5-5z" fill="#7299d6"/><path d="m577.76 2767.7c0-2.76 2.238-5 5-5h242.84c2.761 0 5 2.24 5 5v6.44c0 2.76-2.239 5-5 5h-242.84c-2.762 0-5-2.24-5-5z" fill="#7299d6"/><path d="m577.76 2797.34c0-2.76 2.238-5 5-5h242.84c2.761 0 5 2.24 5 5v6.44c0 2.76-2.239 5-5 5h-242.84c-2.762 0-5-2.24-5-5z" fill="#7299d6"/><path d="m577.76 2826.86c0-2.76 2.238-5 5-5h242.84c2.761 0 5 2.24 5 5v6.44c0 2.76-2.239 5-5 5h-242.84c-2.762 0-5-2.24-5-5z" fill="#7299d6"/><path d="m577.76 2856.38c0-2.76 2.238-5 5-5h242.84c2.761 0 5 2.24 5 5v6.44c0 2.76-2.239 5-5 5h-242.84c-2.762 0-5-2.24-5-5z" fill="#7299d6"/><path d="m577.76 2885.9c0-2.76 2.238-5 5-5h242.84c2.761 0 5 2.24 5 5v6.44c0 2.76-2.239 5-5 5h-242.84c-2.762 0-5-2.24-5-5z" fill="#7299d6"/><path d="m577.76 2915.42c0-2.76 2.238-5 5-5h242.84c2.761 0 5 2.24 5 5v6.44c0 2.76-2.239 5-5 5h-242.84c-2.762 0-5-2.24-5-5z" fill="#7299d6"/><path d="m577.76 2944.94c0-2.76 2.238-5 5-5h242.84c2.761 0 5 2.24 5 5v6.44c0 2.76-2.239 5-5 5h-242.84c-2.762 0-5-2.24-5-5z" fill="#7299d6"/><path d="m577.76 2978.9c0-2.76 2.238-5 5-5h242.84c2.761 0 5 2.24 5 5v6.44c0 2.76-2.239 5-5 5h-242.84c-2.762 0-5-2.24-5-5z" fill="#7299d6"/><path d="m577.76 3006.74c0-2.76 2.238-5 5-5h242.84c2.761 0 5 2.24 5 5v6.44c0 2.76-2.239 5-5 5h-242.84c-2.762 0-5-2.24-5-5z" fill="#7299d6"/><path d="m577.76 3034.58c0-2.76 2.238-5 5-5h242.84c2.761 0 5 2.24 5 5v6.44c0 2.76-2.239 5-5 5h-242.84c-2.762 0-5-2.24-5-5z" fill="#7299d6"/><path d="m577.76 3062.54c0-2.76 2.238-5 5-5h242.84c2.761 0 5 2.24 5 5v6.44c0 2.76-2.239 5-5 5h-242.84c-2.762 0-5-2.24-5-5z" fill="#7299d6"/><path d="m881.6 2472.26c0-2.76 2.238-5 5-5h191.6c2.76 0 5 2.24 5 5v6.44c0 2.76-2.24 5-5 5h-191.6c-2.762 0-5-2.24-5-5z" fill="#7299d6"/><path d="m881.6 2294.84c0-2.76 2.238-5 5-5h20.839c2.762 0 5 2.24 5 5v6.44c0 2.76-2.238 5-5 5h-20.839c-2.762 0-5-2.24-5-5z" fill="#7299d6"/><path d="m881.6 2708.66c0-2.76 2.238-5 5-5h294.08c2.76 0 5 2.24 5 5v6.44c0 2.76-2.24 5-5 5h-294.08c-2.762 0-5-2.24-5-5z" fill="#7299d6"/><path d="m881.6 2501.78c0-2.76 2.238-5 5-5h208.64c2.76 0 5 2.24 5 5v6.44c0 2.76-2.24 5-5 5h-208.64c-2.762 0-5-2.24-5-5z" fill="#7299d6"/><path d="m881.6 2324.36c0-2.76 2.238-5 5-5h38c2.761 0 5 2.24 5 5v6.44c0 2.76-2.239 5-5 5h-38c-2.762 0-5-2.24-5-5z" fill="#7299d6"/><path d="m881.6 2738.18c0-2.76 2.238-5 5-5h311.12c2.76 0 5 2.24 5 5v6.44c0 2.76-2.24 5-5 5h-311.12c-2.762 0-5-2.24-5-5z" fill="#7299d6"/><path d="m881.6 2531.3c0-2.76 2.238-5 5-5h225.8c2.76 0 5 2.24 5 5v6.44c0 2.76-2.24 5-5 5h-225.8c-2.762 0-5-2.24-5-5z" fill="#7299d6"/><path d="m881.6 2353.88c0-2.76 2.238-5 5-5h72.08c2.761 0 5 2.24 5 5v6.44c0 2.76-2.239 5-5 5h-72.08c-2.762 0-5-2.24-5-5z" fill="#7299d6"/><path d="m881.6 2767.7c0-2.76 2.238-5 5-5h328.16c2.76 0 5 2.24 5 5v6.44c0 2.76-2.24 5-5 5h-328.16c-2.762 0-5-2.24-5-5z" fill="#7299d6"/><path d="m881.6 2560.94c0-2.76 2.238-5 5-5h242.84c2.76 0 5 2.24 5 5v6.44c0 2.76-2.24 5-5 5h-242.84c-2.762 0-5-2.24-5-5z" fill="#7299d6"/><path d="m881.6 2383.52c0-2.76 2.238-5 5-5h106.28c2.761 0 5 2.24 5 5v6.44c0 2.76-2.239 5-5 5h-106.28c-2.762 0-5-2.24-5-5z" fill="#7299d6"/><path d="m881.6 2797.34c0-2.76 2.238-5 5-5h345.32c2.76 0 5 2.24 5 5v6.44c0 2.76-2.24 5-5 5h-345.32c-2.762 0-5-2.24-5-5z" fill="#7299d6"/><path d="m881.6 2590.46c0-2.76 2.238-5 5-5h259.88c2.76 0 5 2.24 5 5v6.44c0 2.76-2.24 5-5 5h-259.88c-2.762 0-5-2.24-5-5z" fill="#7299d6"/><path d="m881.6 2413.04c0-2.76 2.238-5 5-5h140.36c2.76 0 5 2.24 5 5v6.44c0 2.76-2.24 5-5 5h-140.36c-2.762 0-5-2.24-5-5z" fill="#7299d6"/><path d="m881.6 2826.86c0-2.76 2.238-5 5-5h345.32c2.76 0 5 2.24 5 5v6.44c0 2.76-2.24 5-5 5h-345.32c-2.762 0-5-2.24-5-5z" fill="#7299d6"/><path d="m881.6 2619.98c0-2.76 2.238-5 5-5h259.88c2.76 0 5 2.24 5 5v6.44c0 2.76-2.24 5-5 5h-259.88c-2.762 0-5-2.24-5-5z" fill="#7299d6"/><path d="m881.6 2442.56c0-2.76 2.238-5 5-5h157.04c2.76 0 5 2.24 5 5v6.44c0 2.76-2.24 5-5 5h-157.04c-2.762 0-5-2.24-5-5z" fill="#7299d6"/><path d="m881.6 2856.38c0-2.76 2.238-5 5-5h362.36c2.76 0 5 2.24 5 5v6.44c0 2.76-2.24 5-5 5h-362.36c-2.762 0-5-2.24-5-5z" fill="#7299d6"/><path d="m881.6 2649.5c0-2.76 2.238-5 5-5h277.04c2.76 0 5 2.24 5 5v6.44c0 2.76-2.24 5-5 5h-277.04c-2.762 0-5-2.24-5-5z" fill="#7299d6"/><path d="m881.6 2885.9c0-2.76 2.238-5 5-5h379.4c2.76 0 5 2.24 5 5v6.44c0 2.76-2.24 5-5 5h-379.4c-2.762 0-5-2.24-5-5z" fill="#7299d6"/><path d="m881.6 2679.02c0-2.76 2.238-5 5-5h293.6c2.76 0 5 2.24 5 5v6.44c0 2.76-2.24 5-5 5h-293.6c-2.762 0-5-2.24-5-5z" fill="#7299d6"/><path d="m881.6 2915.42c0-2.76 2.238-5 5-5h379.4c2.76 0 5 2.24 5 5v6.44c0 2.76-2.24 5-5 5h-379.4c-2.762 0-5-2.24-5-5z" fill="#7299d6"/><path d="m932.84 2944.94c0-2.76 2.238-5 5-5h345.32c2.76 0 5 2.24 5 5v6.44c0 2.76-2.24 5-5 5h-345.32c-2.762 0-5-2.24-5-5z" fill="#7299d6"/><path d="m932.84 2978.9c0-2.76 2.238-5 5-5h362.36c2.76 0 5 2.24 5 5v6.44c0 2.76-2.24 5-5 5h-362.36c-2.762 0-5-2.24-5-5z" fill="#7299d6"/><path d="m932.84 3006.8c0-2.76 2.238-5 5-5h143.6c2.76 0 5 2.24 5 5v6.44c0 2.76-2.24 5-5 5h-143.6c-2.762 0-5-2.24-5-5z" fill="#7299d6"/><path d="m1123.88 3006.8c0-2.76 2.24-5 5-5h174.56c2.76 0 5 2.24 5 5v6.44c0 2.76-2.24 5-5 5h-174.56c-2.76 0-5-2.24-5-5z" fill="#7299d6"/><path d="m932.84 3034.64c0-2.76 2.238-5 5-5h365.6c2.76 0 5 2.24 5 5v6.44c0 2.76-2.24 5-5 5h-365.6c-2.762 0-5-2.24-5-5z" fill="#7299d6"/><path d="m932.84 3062.6c0-2.76 2.238-5 5-5h365.6c2.76 0 5 2.24 5 5v6.44c0 2.76-2.24 5-5 5h-365.6c-2.762 0-5-2.24-5-5z" fill="#7299d6"/><path d="m53.2393 2708.6c0-2.76 2.2385-5 5-5h447.6797c2.761 0 5 2.24 5 5v6.44c0 2.76-2.239 5-5 5h-447.6797c-2.7615 0-5-2.24-5-5z" fill="#7299d6"/><path d="m53.2393 2738.12c0-2.76 2.2385-5 5-5h447.6797c2.761 0 5 2.24 5 5v6.44c0 2.76-2.239 5-5 5h-447.6797c-2.7615 0-5-2.24-5-5z" fill="#7299d6"/><path d="m53.2393 2767.64c0-2.76 2.2385-5 5-5h447.6797c2.761 0 5 2.24 5 5v6.44c0 2.76-2.239 5-5 5h-447.6797c-2.7615 0-5-2.24-5-5z" fill="#7299d6"/><path d="m53.2393 2797.28c0-2.76 2.2385-5 5-5h447.6797c2.761 0 5 2.24 5 5v6.44c0 2.76-2.239 5-5 5h-447.6797c-2.7615 0-5-2.24-5-5z" fill="#7299d6"/><path d="m53.2393 2826.8c0-2.76 2.2385-5 5-5h447.6797c2.761 0 5 2.24 5 5v6.44c0 2.76-2.239 5-5 5h-447.6797c-2.7615 0-5-2.24-5-5z" fill="#7299d6"/><path d="m53.2393 2856.32c0-2.76 2.2385-5 5-5h447.6797c2.761 0 5 2.24 5 5v6.44c0 2.76-2.239 5-5 5h-447.6797c-2.7615 0-5-2.24-5-5z" fill="#7299d6"/><path d="m53.2393 2885.84c0-2.76 2.2385-5 5-5h447.6797c2.761 0 5 2.24 5 5v6.44c0 2.76-2.239 5-5 5h-447.6797c-2.7615 0-5-2.24-5-5z" fill="#7299d6"/><path d="m53.2393 2915.36c0-2.76 2.2385-5 5-5h447.6797c2.761 0 5 2.24 5 5v6.44c0 2.76-2.239 5-5 5h-447.6797c-2.7615 0-5-2.24-5-5z" fill="#7299d6"/><path d="m53.2393 2944.88c0-2.76 2.2385-5 5-5h413.4797c2.761 0 5 2.24 5 5v6.44c0 2.76-2.239 5-5 5h-413.4797c-2.7615 0-5-2.24-5-5z" fill="#7299d6"/><path d="m343.399 3006.14c0-2.76 2.239-5 5-5h123.32c2.761 0 5 2.24 5 5v6.44c0 2.76-2.239 5-5 5h-123.32c-2.761 0-5-2.24-5-5z" fill="#7299d6"/><path d="m343.399 2978.9c0-2.76 2.239-5 5-5h123.32c2.761 0 5 2.24 5 5v6.44c0 2.76-2.239 5-5 5h-123.32c-2.761 0-5-2.24-5-5z" fill="#7299d6"/><path d="m53.2393 2978.9c0-2.76 2.2385-5 5-5h208.6397c2.761 0 5 2.24 5 5v6.44c0 2.76-2.239 5-5 5h-208.6397c-2.7615 0-5-2.24-5-5z" fill="#7299d6"/><path d="m343.399 3033.98c0-2.76 2.239-5 5-5h123.32c2.761 0 5 2.24 5 5v6.44c0 2.76-2.239 5-5 5h-123.32c-2.761 0-5-2.24-5-5z" fill="#7299d6"/><path d="m343.399 3061.94c0-2.76 2.239-5 5-5h123.32c2.761 0 5 2.24 5 5v6.44c0 2.76-2.239 5-5 5h-123.32c-2.761 0-5-2.24-5-5z" fill="#7299d6"/><path d="m1365.16 2938.44c-1.95-1.95-1.95-5.12 0-7.07l207.87-207.87c1.96-1.95 5.12-1.95 7.07 0l4.56 4.55c1.95 1.96 1.95 5.12 0 7.07l-207.87 207.88c-1.96 1.95-5.12 1.95-7.08 0z" fill="#7299d6"/><path d="m1338.14 2923.68c-1.95-1.95-1.95-5.11 0-7.07l220-219.99c1.95-1.96 5.12-1.96 7.07 0l4.55 4.55c1.96 1.95 1.96 5.12 0 7.07l-219.99 220c-1.96 1.95-5.12 1.95-7.08 0z" fill="#7299d6"/><path d="m1323.57 2896.48c-1.95-1.96-1.95-5.12 0-7.07l38.87-38.87c1.95-1.96 5.12-1.96 7.07 0l4.56 4.55c1.95 1.95 1.95 5.12 0 7.07l-38.87 38.87c-1.96 1.95-5.12 1.95-7.07 0z" fill="#7299d6"/><path d="m1383.73 2836.32c-1.95-1.96-1.95-5.12 0-7.08l147.53-147.52c1.95-1.95 5.11-1.95 7.07 0l4.55 4.56c1.95 1.95 1.95 5.11 0 7.07l-147.52 147.52c-1.95 1.95-5.12 1.95-7.07 0z" fill="#7299d6"/><path d="m1308.49 2869.78c-1.95-1.95-1.95-5.12 0-7.07l195.85-195.85c1.96-1.95 5.12-1.95 7.07 0l4.56 4.55c1.95 1.95 1.95 5.12 0 7.07l-195.85 195.85c-1.96 1.96-5.12 1.96-7.07 0z" fill="#7299d6"/><path d="m1305.68 2830.81c-1.95-1.95-1.95-5.12 0-7.07l171.75-171.75c1.95-1.95 5.12-1.95 7.07 0l4.56 4.55c1.95 1.96 1.95 5.12 0 7.08l-171.75 171.74c-1.95 1.96-5.12 1.96-7.07 0z" fill="#7299d6"/><path d="m1290.9 2803.82c-1.96-1.95-1.96-5.12 0-7.07l147.54-147.54c1.95-1.96 5.12-1.96 7.07 0l4.56 4.55c1.95 1.95 1.95 5.12 0 7.07l-147.55 147.55c-1.95 1.95-5.12 1.95-7.07 0z" fill="#7299d6"/><path d="m1276.07 2776.87c-1.96-1.95-1.96-5.11 0-7.07l135.4-135.4c1.95-1.95 5.12-1.95 7.07 0l4.56 4.55c1.95 1.95 1.95 5.12 0 7.07l-135.41 135.41c-1.95 1.95-5.12 1.95-7.07 0z" fill="#7299d6"/><path d="m1261.18 2749.98c-1.95-1.95-1.95-5.11 0-7.07l123.39-123.39c1.95-1.95 5.12-1.95 7.07 0l4.55 4.56c1.96 1.95 1.96 5.12 0 7.07l-123.39 123.39c-1.95 1.95-5.11 1.95-7.07 0z" fill="#7299d6"/><path d="m1246.29 2723.1c-1.96-1.95-1.96-5.12 0-7.07l111.35-111.36c1.95-1.95 5.12-1.95 7.07 0l4.56 4.56c1.95 1.95 1.95 5.12 0 7.07l-111.36 111.35c-1.95 1.96-5.12 1.96-7.07 0z" fill="#7299d6"/><path d="m1231.42 2696.19c-1.96-1.95-1.96-5.12 0-7.07l99.29-99.29c1.95-1.95 5.11-1.95 7.07 0l4.55 4.55c1.95 1.96 1.95 5.12 0 7.08l-99.29 99.29c-1.95 1.95-5.12 1.95-7.07 0z" fill="#7299d6"/><path d="m1228.68 2657.15c-1.95-1.95-1.95-5.12 0-7.07l63.08-63.08c1.95-1.95 5.12-1.95 7.07 0l4.55 4.56c1.95 1.95 1.95 5.11 0 7.07l-63.08 63.07c-1.95 1.96-5.11 1.96-7.07 0z" fill="#7299d6"/><path d="m1213.77 2630.28c-1.95-1.95-1.95-5.12 0-7.07l51.03-51.03c1.95-1.95 5.12-1.95 7.07 0l4.55 4.56c1.96 1.95 1.96 5.11 0 7.07l-51.02 51.02c-1.95 1.96-5.12 1.96-7.07 0z" fill="#7299d6"/><path d="m1198.95 2603.33c-1.96-1.95-1.96-5.12 0-7.07l38.93-38.93c1.95-1.96 5.12-1.96 7.07 0l4.55 4.55c1.96 1.95 1.96 5.12 0 7.07l-38.93 38.93c-1.95 1.96-5.12 1.96-7.07 0z" fill="#7299d6"/><path d="m1184.14 2576.35c-1.95-1.95-1.95-5.11 0-7.07l26.79-26.78c1.95-1.95 5.12-1.95 7.07 0l4.55 4.55c1.96 1.95 1.96 5.12 0 7.07l-26.78 26.79c-1.95 1.95-5.12 1.95-7.07 0z" fill="#7299d6"/><path d="m1612.03 995.228c0 2.761 2.24 5.002 5 5.002h6.44c2.76 0 5-2.241 5-5.002v-498.921c0-2.761-2.24-5-5-5h-6.44c-2.76 0-5 2.239-5 5z" fill="#7299d6"/><path d="m1582.48 1009.6c0 2.76 2.24 5 5 5h6.44c2.76 0 5-2.24 5-5v-513.293c0-2.761-2.24-5-5-5h-6.44c-2.76 0-5 2.239-5 5z" fill="#7299d6"/><path d="m1405.18 1027.25c0 2.76 2.24 5 5 5h6.44c2.76 0 5-2.24 5-5v-513.971c0-2.761-2.24-5-5-5h-6.44c-2.76 0-5 2.239-5 5z" fill="#7299d6"/><path d="m1552.93 1009.6c0 2.76 2.24 5 5 5h6.44c2.76 0 5-2.24 5-5v-513.293c0-2.761-2.24-5-5-5h-6.44c-2.76 0-5 2.239-5 5z" fill="#7299d6"/><path d="m1375.62 858.667c0 2.762 2.24 5 5 5h6.44c2.77 0 5-2.238 5-5v-294.08c0-2.761-2.23-5-5-5h-6.44c-2.76 0-5 2.239-5 5z" fill="#7299d6"/><path d="m1375.62 534.308c0 2.761 2.24 5 5 5h6.44c2.77 0 5-2.239 5-5v-20.961c0-2.761-2.23-5-5-5h-6.44c-2.76 0-5 2.239-5 5z" fill="#7299d6"/><path d="m1375.62 1027.25c0 2.76 2.24 5 5 5h6.44c2.77 0 5-2.24 5-5v-122.787c0-2.762-2.23-5-5-5h-6.44c-2.76 0-5 2.238-5 5z" fill="#7299d6"/><path d="m1523.38 1009.6c0 2.76 2.24 5 5 5h6.44c2.76 0 5-2.24 5-5v-513.293c0-2.761-2.24-5-5-5h-6.44c-2.76 0-5 2.239-5 5z" fill="#7299d6"/><path d="m1346.07 1027.25c0 2.76 2.24 5 5 5h6.44c2.77 0 5-2.24 5-5v-496.88c0-2.761-2.23-5-5-5h-6.44c-2.76 0-5 2.239-5 5z" fill="#7299d6"/><path d="m1493.83 1009.6c0 2.76 2.24 5 5 5h6.44c2.76 0 5-2.24 5-5v-513.293c0-2.761-2.24-5-5-5h-6.44c-2.76 0-5 2.239-5 5z" fill="#7299d6"/><path d="m1316.52 1027.25c0 2.76 2.24 5 5 5h6.44c2.76 0 5-2.24 5-5v-479.908c0-2.761-2.24-5-5-5h-6.44c-2.76 0-5 2.239-5 5z" fill="#7299d6"/><path d="m1464.28 1009.6c0 2.76 2.24 5 5 5h6.44c2.76 0 5-2.24 5-5v-513.293c0-2.761-2.24-5-5-5h-6.44c-2.76 0-5 2.239-5 5z" fill="#7299d6"/><path d="m1286.97 858.667c0 2.762 2.24 5 5 5h6.44c2.76 0 5-2.238 5-5v-294.08c0-2.761-2.24-5-5-5h-6.44c-2.76 0-5 2.239-5 5z" fill="#7299d6"/><path d="m1286.97 1044.04c0 2.76 2.24 5 5 5h6.44c2.76 0 5-2.24 5-5v-138.953c0-2.762-2.24-5-5-5h-6.44c-2.76 0-5 2.238-5 5z" fill="#7299d6"/><path d="m1434.73 1027.25c0 2.76 2.24 5 5 5h6.44c2.76 0 5-2.24 5-5v-530.943c0-2.761-2.24-5-5-5h-6.44c-2.76 0-5 2.239-5 5z" fill="#7299d6"/><path d="m1257.42 1044.04c0 2.76 2.24 5 5 5h6.44c2.76 0 5-2.24 5-5v-479.453c0-2.761-2.24-5-5-5h-6.44c-2.76 0-5 2.239-5 5z" fill="#7299d6"/><path d="m1227.87 1044.04c0 2.76 2.24 5 5 5h6.44c2.76 0 5-2.24 5-5v-463.421c0-2.761-2.24-5-5-5h-6.44c-2.76 0-5 2.239-5 5z" fill="#7299d6"/><path d="m1198.32 1044.04c0 2.76 2.24 5 5 5h6.44c2.76 0 5-2.24 5-5v-463.421c0-2.761-2.24-5-5-5h-6.44c-2.76 0-5 2.239-5 5z" fill="#7299d6"/><path d="m1168.77 1044.04c0 2.76 2.24 5 5 5h6.44c2.76 0 5-2.24 5-5v-446.432c0-2.761-2.24-5-5-5h-6.44c-2.76 0-5 2.239-5 5z" fill="#7299d6"/><path d="m1139.22 1044.04c0 2.76 2.24 5 5 5h6.44c2.76 0 5-2.24 5-5v-428.485c0-2.762-2.24-5-5-5h-6.44c-2.76 0-5 2.238-5 5z" fill="#7299d6"/><path d="m1109.67 1044.04c0 2.76 2.23 5 5 5h6.44c2.76 0 5-2.24 5-5v-391.755c0-2.762-2.24-5-5-5h-6.44c-2.77 0-5 2.238-5 5z" fill="#7299d6"/><path d="m1080.12 1044.04c0 2.76 2.23 5 5 5h6.43c2.77 0 5-2.24 5-5v-373.331c0-2.761-2.23-5-5-5h-6.43c-2.77 0-5 2.239-5 5z" fill="#7299d6"/><path d="m1050.56 1044.04c0 2.76 2.24 5 5 5h6.44c2.77 0 5-2.24 5-5v-336.601c0-2.761-2.23-5-5-5h-6.44c-2.76 0-5 2.239-5 5z" fill="#7299d6"/><path d="m1021.01 1044.04c0 2.76 2.24 5 5 5h6.44c2.76 0 5-2.24 5-5v-318.176c0-2.761-2.24-5-5-5h-6.44c-2.76 0-5 2.239-5 5z" fill="#7299d6"/><path d="m991.463 1044.04c0 2.76 2.238 5 5 5h6.437c2.76 0 5-2.24 5-5v-281.326c0-2.762-2.24-5-5-5h-6.437c-2.762 0-5 2.238-5 5z" fill="#7299d6"/><path d="m961.912 1044.04c0 2.76 2.239 5 5 5h6.44c2.761 0 5-2.24 5-5v-244.357c0-2.762-2.239-5-5-5h-6.44c-2.761 0-5 2.238-5 5z" fill="#7299d6"/><path d="m932.36 1044.04c0 2.76 2.239 5 5 5h6.44c2.761 0 5-2.24 5-5v-226.172c0-2.761-2.239-5-5-5h-6.44c-2.761 0-5 2.239-5 5z" fill="#7299d6"/><path d="m1612.03 1444.72c0 2.76 2.24 5 5 5h6.44c2.76 0 5-2.24 5-5v-293.96c0-2.76-2.24-5-5-5h-6.44c-2.76 0-5 2.24-5 5z" fill="#7299d6"/><path d="m1582.48 1459.55c0 2.76 2.24 5 5 5h6.44c2.76 0 5-2.24 5-5v-321.34c0-2.76-2.24-5-5-5h-6.44c-2.76 0-5 2.24-5 5z" fill="#7299d6"/><path d="m1405.18 1478.92c0 2.76 2.24 5 5 5h6.44c2.76 0 5-2.24 5-5v-362.24c0-2.76-2.24-5-5-5h-6.44c-2.76 0-5 2.24-5 5z" fill="#7299d6"/><path d="m1552.93 1459.55c0 2.76 2.24 5 5 5h6.44c2.76 0 5-2.24 5-5v-321.34c0-2.76-2.24-5-5-5h-6.44c-2.76 0-5 2.24-5 5z" fill="#7299d6"/><path d="m1375.62 1188.76c0 2.76 2.24 5 5 5h6.44c2.77 0 5-2.24 5-5v-72.08c0-2.76-2.23-5-5-5h-6.44c-2.76 0-5 2.24-5 5z" fill="#7299d6"/><path d="m1375.62 1479.04c0 2.76 2.24 5 5 5h6.44c2.77 0 5-2.24 5-5v-242.84c0-2.76-2.23-5-5-5h-6.44c-2.76 0-5 2.24-5 5z" fill="#7299d6"/><path d="m1523.38 1459.55c0 2.76 2.24 5 5 5h6.44c2.76 0 5-2.24 5-5v-321.34c0-2.76-2.24-5-5-5h-6.44c-2.76 0-5 2.24-5 5z" fill="#7299d6"/><path d="m1346.07 1478.92c0 2.76 2.24 5 5 5h6.44c2.77 0 5-2.24 5-5v-362.24c0-2.76-2.23-5-5-5h-6.44c-2.76 0-5 2.24-5 5z" fill="#7299d6"/><path d="m1493.83 1459.55c0 2.76 2.24 5 5 5h6.44c2.76 0 5-2.24 5-5v-321.34c0-2.76-2.24-5-5-5h-6.44c-2.76 0-5 2.24-5 5z" fill="#7299d6"/><path d="m1316.52 1478.92c0 2.76 2.24 5 5 5h6.44c2.76 0 5-2.24 5-5v-362.24c0-2.76-2.24-5-5-5h-6.44c-2.76 0-5 2.24-5 5z" fill="#7299d6"/><path d="m1464.28 1459.55c0 2.76 2.24 5 5 5h6.44c2.76 0 5-2.24 5-5v-321.34c0-2.76-2.24-5-5-5h-6.44c-2.76 0-5 2.24-5 5z" fill="#7299d6"/><path d="m1286.97 1188.76c0 2.76 2.24 5 5 5h6.44c2.76 0 5-2.24 5-5v-85.76c0-2.76-2.24-5-5-5h-6.44c-2.76 0-5 2.24-5 5z" fill="#7299d6"/><path d="m1286.97 1495c0 2.76 2.24 5 5 5h6.44c2.76 0 5-2.24 5-5v-258.8c0-2.76-2.24-5-5-5h-6.44c-2.76 0-5 2.24-5 5z" fill="#7299d6"/><path d="m1434.73 1478.92c0 2.76 2.24 5 5 5h6.44c2.76 0 5-2.24 5-5v-362.24c0-2.76-2.24-5-5-5h-6.44c-2.76 0-5 2.24-5 5z" fill="#7299d6"/><path d="m1257.42 1495c0 2.76 2.24 5 5 5h6.44c2.76 0 5-2.24 5-5v-392c0-2.76-2.24-5-5-5h-6.44c-2.76 0-5 2.24-5 5z" fill="#7299d6"/><path d="m1227.87 1495c0 2.76 2.24 5 5 5h6.44c2.76 0 5-2.24 5-5v-392c0-2.76-2.24-5-5-5h-6.44c-2.76 0-5 2.24-5 5z" fill="#7299d6"/><path d="m1198.32 1495c0 2.76 2.24 5 5 5h6.44c2.76 0 5-2.24 5-5v-392c0-2.76-2.24-5-5-5h-6.44c-2.76 0-5 2.24-5 5z" fill="#7299d6"/><path d="m1168.77 1495c0 2.76 2.24 5 5 5h6.44c2.76 0 5-2.24 5-5v-392c0-2.76-2.24-5-5-5h-6.44c-2.76 0-5 2.24-5 5z" fill="#7299d6"/><path d="m1139.22 1495c0 2.76 2.24 5 5 5h6.44c2.76 0 5-2.24 5-5v-392c0-2.76-2.24-5-5-5h-6.44c-2.76 0-5 2.24-5 5z" fill="#7299d6"/><path d="m1109.67 1495c0 2.76 2.23 5 5 5h6.44c2.76 0 5-2.24 5-5v-392c0-2.76-2.24-5-5-5h-6.44c-2.77 0-5 2.24-5 5z" fill="#7299d6"/><path d="m1080.12 1495c0 2.76 2.23 5 5 5h6.43c2.77 0 5-2.24 5-5v-392c0-2.76-2.23-5-5-5h-6.43c-2.77 0-5 2.24-5 5z" fill="#7299d6"/><path d="m1050.56 1495c0 2.76 2.24 5 5 5h6.44c2.77 0 5-2.24 5-5v-392c0-2.76-2.23-5-5-5h-6.44c-2.76 0-5 2.24-5 5z" fill="#7299d6"/><path d="m1021.04 1494.87c0 2.76 2.24 5 5 5h6.44c2.76 0 5-2.24 5-5v-391.87c0-2.76-2.24-5-5-5h-6.44c-2.76 0-5 2.24-5 5z" fill="#7299d6"/><path d="m991.463 1495c0 2.76 2.238 5 5 5h6.437c2.76 0 5-2.24 5-5v-392c0-2.76-2.24-5-5-5h-6.437c-2.762 0-5 2.24-5 5z" fill="#7299d6"/><path d="m961.912 1495c0 2.76 2.239 5 5 5h6.44c2.761 0 5-2.24 5-5v-392c0-2.76-2.239-5-5-5h-6.44c-2.761 0-5 2.24-5 5z" fill="#7299d6"/><path d="m932.36 1495c0 2.76 2.239 5 5 5h6.44c2.761 0 5-2.24 5-5v-392c0-2.76-2.239-5-5-5h-6.44c-2.761 0-5 2.24-5 5z" fill="#7299d6"/><path d="m1612.03 1922.68c0 2.76 2.24 5 5 5h6.44c2.76 0 5-2.24 5-5v-293.96c0-2.76-2.24-5-5-5h-6.44c-2.76 0-5 2.24-5 5z" fill="#7299d6"/><path d="m1582.48 1937.51c0 2.76 2.24 5 5 5h6.44c2.76 0 5-2.24 5-5v-321.34c0-2.76-2.24-5-5-5h-6.44c-2.76 0-5 2.24-5 5z" fill="#7299d6"/><path d="m1405.18 1955.09c0 2.76 2.24 5 5 5h6.44c2.76 0 5-2.24 5-5v-357.28c0-2.76-2.24-5-5-5h-6.44c-2.76 0-5 2.24-5 5z" fill="#7299d6"/><path d="m1552.93 1937.51c0 2.76 2.24 5 5 5h6.44c2.76 0 5-2.24 5-5v-321.34c0-2.76-2.24-5-5-5h-6.44c-2.76 0-5 2.24-5 5z" fill="#7299d6"/><path d="m1375.62 1955.21c0 2.76 2.24 5 5 5h6.44c2.77 0 5-2.24 5-5v-357.4c0-2.76-2.23-5-5-5h-6.44c-2.76 0-5 2.24-5 5z" fill="#7299d6"/><path d="m1523.38 1937.51c0 2.76 2.24 5 5 5h6.44c2.76 0 5-2.24 5-5v-321.34c0-2.76-2.24-5-5-5h-6.44c-2.76 0-5 2.24-5 5z" fill="#7299d6"/><path d="m1346.07 1955.09c0 2.76 2.24 5 5 5h6.44c2.77 0 5-2.24 5-5v-357.28c0-2.76-2.23-5-5-5h-6.44c-2.76 0-5 2.24-5 5z" fill="#7299d6"/><path d="m1493.83 1937.51c0 2.76 2.24 5 5 5h6.44c2.76 0 5-2.24 5-5v-321.34c0-2.76-2.24-5-5-5h-6.44c-2.76 0-5 2.24-5 5z" fill="#7299d6"/><path d="m1464.28 1937.51c0 2.76 2.24 5 5 5h6.44c2.76 0 5-2.24 5-5v-321.34c0-2.76-2.24-5-5-5h-6.44c-2.76 0-5 2.24-5 5z" fill="#7299d6"/><path d="m1434.73 1955.09c0 2.76 2.24 5 5 5h6.44c2.76 0 5-2.24 5-5v-357.28c0-2.76-2.24-5-5-5h-6.44c-2.76 0-5 2.24-5 5z" fill="#7299d6"/><path d="m1257.42 1972.96c0 2.76 2.24 5 5 5h6.44c2.76 0 5-2.24 5-5v-392c0-2.76-2.24-5-5-5h-6.44c-2.76 0-5 2.24-5 5z" fill="#7299d6"/><path d="m1227.87 1972.96c0 2.76 2.24 5 5 5h6.44c2.76 0 5-2.24 5-5v-392c0-2.76-2.24-5-5-5h-6.44c-2.76 0-5 2.24-5 5z" fill="#7299d6"/><path d="m1198.32 1972.96c0 2.76 2.24 5 5 5h6.44c2.76 0 5-2.24 5-5v-392c0-2.76-2.24-5-5-5h-6.44c-2.76 0-5 2.24-5 5z" fill="#7299d6"/><path d="m1168.77 1972.96c0 2.76 2.24 5 5 5h6.44c2.76 0 5-2.24 5-5v-392c0-2.76-2.24-5-5-5h-6.44c-2.76 0-5 2.24-5 5z" fill="#7299d6"/><path d="m1139.22 1972.96c0 2.76 2.24 5 5 5h6.44c2.76 0 5-2.24 5-5v-392c0-2.76-2.24-5-5-5h-6.44c-2.76 0-5 2.24-5 5z" fill="#7299d6"/><path d="m1109.67 1972.96c0 2.76 2.23 5 5 5h6.44c2.76 0 5-2.24 5-5v-392c0-2.76-2.24-5-5-5h-6.44c-2.77 0-5 2.24-5 5z" fill="#7299d6"/><path d="m1080.12 1972.96c0 2.76 2.23 5 5 5h6.43c2.77 0 5-2.24 5-5v-392c0-2.76-2.23-5-5-5h-6.43c-2.77 0-5 2.24-5 5z" fill="#7299d6"/><path d="m1050.56 1972.96c0 2.76 2.24 5 5 5h6.44c2.77 0 5-2.24 5-5v-392c0-2.76-2.23-5-5-5h-6.44c-2.76 0-5 2.24-5 5z" fill="#7299d6"/><path d="m1021.04 1972.83c0 2.76 2.24 5 5 5h6.44c2.76 0 5-2.24 5-5v-391.87c0-2.76-2.24-5-5-5h-6.44c-2.76 0-5 2.24-5 5z" fill="#7299d6"/><path d="m991.463 1972.96c0 2.76 2.238 5 5 5h6.437c2.76 0 5-2.24 5-5v-392c0-2.76-2.24-5-5-5h-6.437c-2.762 0-5 2.24-5 5z" fill="#7299d6"/><path d="m961.912 1972.96c0 2.76 2.239 5 5 5h6.44c2.761 0 5-2.24 5-5v-392c0-2.76-2.239-5-5-5h-6.44c-2.761 0-5 2.24-5 5z" fill="#7299d6"/><path d="m932.36 1972.96c0 2.76 2.239 5 5 5h6.44c2.761 0 5-2.24 5-5v-392c0-2.76-2.239-5-5-5h-6.44c-2.761 0-5 2.24-5 5z" fill="#7299d6"/><path d="m577.761 366.967c0 2.762 2.238 5 5 5h242.84c2.761 0 5-2.238 5-5v-6.44c0-2.761-2.239-5-5-5h-242.84c-2.762 0-5 2.239-5 5z" fill="#7299d6"/><path d="m577.761 337.447c0 2.762 2.238 5 5 5h242.84c2.761 0 5-2.238 5-5v-6.44c0-2.761-2.239-5-5-5h-242.84c-2.762 0-5 2.239-5 5z" fill="#7299d6"/><path d="m577.761 307.927c0 2.762 2.238 5 5 5h242.84c2.761 0 5-2.238 5-5v-6.44c0-2.761-2.239-5-5-5h-242.84c-2.762 0-5 2.239-5 5z" fill="#7299d6"/><path d="m577.761 278.288c0 2.761 2.238 5 5 5h242.84c2.761 0 5-2.239 5-5v-6.44c0-2.762-2.239-5-5-5h-242.84c-2.762 0-5 2.238-5 5z" fill="#7299d6"/><path d="m577.761 248.768c0 2.761 2.238 5 5 5h242.84c2.761 0 5-2.239 5-5v-6.44c0-2.762-2.239-5-5-5h-242.84c-2.762 0-5 2.238-5 5z" fill="#7299d6"/><path d="m577.761 219.248c0 2.761 2.238 5 5 5h242.84c2.761 0 5-2.239 5-5v-6.44c0-2.762-2.239-5-5-5h-242.84c-2.762 0-5 2.238-5 5z" fill="#7299d6"/><path d="m577.761 189.728c0 2.761 2.238 5 5 5h242.84c2.761 0 5-2.239 5-5v-6.44c0-2.762-2.239-5-5-5h-242.84c-2.762 0-5 2.238-5 5z" fill="#7299d6"/><path d="m577.761 160.208c0 2.761 2.238 5 5 5h242.84c2.761 0 5-2.239 5-5v-6.44c0-2.762-2.239-5-5-5h-242.84c-2.762 0-5 2.238-5 5z" fill="#7299d6"/><path d="m577.761 130.688c0 2.761 2.238 5 5 5h242.84c2.761 0 5-2.239 5-5v-6.44c0-2.762-2.239-5-5-5h-242.84c-2.762 0-5 2.238-5 5z" fill="#7299d6"/><path d="m577.761 96.7273c0 2.7614 2.238 4.9997 5 4.9997h242.84c2.761 0 5-2.2383 5-4.9997v-6.4399c0-2.7615-2.239-5-5-5h-242.84c-2.762 0-5 2.2385-5 5z" fill="#7299d6"/><path d="m587.84 67.894c0 2.7614 2.238 5 5 5h232.761c2.761 0 5-2.2386 5-5v-6.44c0-2.7614-2.239-5-5-5h-232.761c-2.762 0-5 2.2386-5 5z" fill="#7299d6"/><path d="m587.84 40.0678c0 2.7614 2.238 5 5 5h232.761c2.761 0 5-2.2386 5-5v-6.44c0-2.7614-2.239-5-5-5h-232.761c-2.762 0-5 2.2386-5 5z" fill="#7299d6"/><path d="m587.96 12.64c0 2.7614 2.239 5 5 5h232.641c2.761 0 5-2.2386 5-5v-6.43996c0-2.76142-2.239-5-5-5h-232.641c-2.761 0-5 2.23858-5 5z" fill="#7299d6"/><path d="m881.601 603.367c0 2.761 2.238 5 5 5h191.599c2.76 0 5-2.239 5-5v-6.44c0-2.761-2.24-5-5-5h-191.599c-2.762 0-5 2.239-5 5z" fill="#7299d6"/><path d="m881.601 780.787c0 2.762 2.238 5 5 5h20.839c2.762 0 5-2.238 5-5v-6.44c0-2.761-2.238-5-5-5h-20.839c-2.762 0-5 2.239-5 5z" fill="#7299d6"/><path d="m881.601 366.967c0 2.762 2.238 5 5 5h294.079c2.76 0 5-2.238 5-5v-6.44c0-2.761-2.24-5-5-5h-294.079c-2.762 0-5 2.239-5 5z" fill="#7299d6"/><path d="m881.601 573.847c0 2.761 2.238 5 5 5h208.639c2.76 0 5-2.239 5-5v-6.44c0-2.761-2.24-5-5-5h-208.639c-2.762 0-5 2.239-5 5z" fill="#7299d6"/><path d="m881.601 751.267c0 2.762 2.238 5 5 5h38c2.761 0 5-2.238 5-5v-6.44c0-2.761-2.239-5-5-5h-38c-2.762 0-5 2.239-5 5z" fill="#7299d6"/><path d="m881.601 337.447c0 2.762 2.238 5 5 5h311.119c2.76 0 5-2.238 5-5v-6.44c0-2.761-2.24-5-5-5h-311.119c-2.762 0-5 2.239-5 5z" fill="#7299d6"/><path d="m881.601 544.327c0 2.761 2.238 5 5 5h225.799c2.76 0 5-2.239 5-5v-6.44c0-2.761-2.24-5-5-5h-225.799c-2.762 0-5 2.239-5 5z" fill="#7299d6"/><path d="m881.601 721.747c0 2.762 2.238 5 5 5h72.08c2.761 0 5-2.238 5-5v-6.44c0-2.761-2.239-5-5-5h-72.08c-2.762 0-5 2.239-5 5z" fill="#7299d6"/><path d="m881.601 307.927c0 2.762 2.238 5 5 5h328.159c2.76 0 5-2.238 5-5v-6.44c0-2.761-2.24-5-5-5h-328.159c-2.762 0-5 2.239-5 5z" fill="#7299d6"/><path d="m881.601 514.687c0 2.762 2.238 5 5 5h242.839c2.76 0 5-2.238 5-5v-6.44c0-2.761-2.24-5-5-5h-242.839c-2.762 0-5 2.239-5 5z" fill="#7299d6"/><path d="m881.601 692.108c0 2.761 2.238 5 5 5h106.28c2.761 0 5-2.239 5-5v-6.44c0-2.762-2.239-5-5-5h-106.28c-2.762 0-5 2.238-5 5z" fill="#7299d6"/><path d="m881.601 278.288c0 2.761 2.238 5 5 5h328.159c2.76 0 5-2.239 5-5v-6.44c0-2.762-2.24-5-5-5h-328.159c-2.762 0-5 2.238-5 5z" fill="#7299d6"/><path d="m881.601 485.167c0 2.762 2.238 5 5 5h259.879c2.76 0 5-2.238 5-5v-6.44c0-2.761-2.24-5-5-5h-259.879c-2.762 0-5 2.239-5 5z" fill="#7299d6"/><path d="m881.601 662.588c0 2.761 2.238 5 5 5h140.359c2.76 0 5-2.239 5-5v-6.44c0-2.762-2.24-5-5-5h-140.359c-2.762 0-5 2.238-5 5z" fill="#7299d6"/><path d="m881.601 248.768c0 2.761 2.238 5 5 5h345.319c2.76 0 5-2.239 5-5v-6.44c0-2.762-2.24-5-5-5h-345.319c-2.762 0-5 2.238-5 5z" fill="#7299d6"/><path d="m881.601 455.647c0 2.762 2.238 5 5 5h259.879c2.76 0 5-2.238 5-5v-6.44c0-2.761-2.24-5-5-5h-259.879c-2.762 0-5 2.239-5 5z" fill="#7299d6"/><path d="m881.601 633.068c0 2.761 2.238 5 5 5h157.039c2.76 0 5-2.239 5-5v-6.44c0-2.762-2.24-5-5-5h-157.039c-2.762 0-5 2.238-5 5z" fill="#7299d6"/><path d="m881.601 219.248c0 2.761 2.238 5 5 5h362.359c2.76 0 5-2.239 5-5v-6.44c0-2.762-2.24-5-5-5h-362.359c-2.762 0-5 2.238-5 5z" fill="#7299d6"/><path d="m881.601 426.127c0 2.762 2.238 5 5 5h277.039c2.76 0 5-2.238 5-5v-6.44c0-2.761-2.24-5-5-5h-277.039c-2.762 0-5 2.239-5 5z" fill="#7299d6"/><path d="m881.601 189.728c0 2.761 2.238 5 5 5h379.399c2.76 0 5-2.239 5-5v-6.44c0-2.762-2.24-5-5-5h-379.399c-2.762 0-5 2.238-5 5z" fill="#7299d6"/><path d="m881.601 396.607c0 2.762 2.238 5 5 5h293.599c2.76 0 5-2.238 5-5v-6.44c0-2.761-2.24-5-5-5h-293.599c-2.762 0-5 2.239-5 5z" fill="#7299d6"/><path d="m881.601 160.208c0 2.761 2.238 5 5 5h379.399c2.76 0 5-2.239 5-5v-6.44c0-2.762-2.24-5-5-5h-379.399c-2.762 0-5 2.238-5 5z" fill="#7299d6"/><path d="m881.6 130.638c0 2.761 2.238 5 5 5h396.56c2.76 0 5-2.239 5-5v-6.44c0-2.761-2.24-5-5-5h-396.56c-2.762 0-5 2.239-5 5z" fill="#7299d6"/><path d="m881.6 96.7273c0 2.7614 2.238 4.9997 5 4.9997h396.56c2.76 0 5-2.2383 5-4.9997v-6.4399c0-2.7615-2.24-5-5-5h-396.56c-2.762 0-5 2.2385-5 5z" fill="#7299d6"/><path d="m902 67.8939c0 2.7614 2.239 5 5 5h396.32c2.76 0 5-2.2386 5-5v-6.4399c0-2.7614-2.24-5-5-5h-396.32c-2.761 0-5 2.2386-5 5z" fill="#7299d6"/><path d="m902 40.0677c0 2.7615 2.239 5 5 5h174.44c2.76 0 5-2.2385 5-5v-6.4399c0-2.7614-2.24-5-5-5h-174.44c-2.761 0-5 2.2386-5 5z" fill="#7299d6"/><path d="m1123.88 40.0677c0 2.7615 2.24 5 5 5h174.44c2.76 0 5-2.2385 5-5v-6.4399c0-2.7614-2.24-5-5-5h-174.44c-2.76 0-5 2.2386-5 5z" fill="#7299d6"/><path d="m902 12.5085c0 2.7615 2.239 5 5 5h396.44c2.76 0 5-2.2385 5-5v-6.4399c0-2.76142-2.24-5-5-5h-396.44c-2.761 0-5 2.23858-5 5z" fill="#7299d6"/><path d="m53.2393 367.027c0 2.762 2.2385 5 5 5h447.6797c2.761 0 5-2.238 5-5v-6.44c0-2.761-2.239-5-5-5h-447.6797c-2.7615 0-5 2.239-5 5z" fill="#7299d6"/><path d="m53.2393 337.507c0 2.762 2.2385 5 5 5h447.6797c2.761 0 5-2.238 5-5v-6.44c0-2.761-2.239-5-5-5h-447.6797c-2.7615 0-5 2.239-5 5z" fill="#7299d6"/><path d="m53.2393 307.987c0 2.762 2.2385 5 5 5h447.6797c2.761 0 5-2.238 5-5v-6.44c0-2.761-2.239-5-5-5h-447.6797c-2.7615 0-5 2.239-5 5z" fill="#7299d6"/><path d="m53.2393 278.347c0 2.762 2.2385 5 5 5h447.6797c2.761 0 5-2.238 5-5v-6.44c0-2.761-2.239-5-5-5h-447.6797c-2.7615 0-5 2.239-5 5z" fill="#7299d6"/><path d="m53.2393 248.827c0 2.762 2.2385 5 5 5h447.6797c2.761 0 5-2.238 5-5v-6.44c0-2.761-2.239-5-5-5h-447.6797c-2.7615 0-5 2.239-5 5z" fill="#7299d6"/><path d="m53.2393 219.307c0 2.762 2.2385 5 5 5h447.6797c2.761 0 5-2.238 5-5v-6.44c0-2.761-2.239-5-5-5h-447.6797c-2.7615 0-5 2.239-5 5z" fill="#7299d6"/><path d="m53.2393 189.787c0 2.762 2.2385 5 5 5h447.6797c2.761 0 5-2.238 5-5v-6.44c0-2.761-2.239-5-5-5h-447.6797c-2.7615 0-5 2.239-5 5z" fill="#7299d6"/><path d="m53.2393 160.267c0 2.762 2.2385 5 5 5h447.6797c2.761 0 5-2.238 5-5v-6.44c0-2.761-2.239-5-5-5h-447.6797c-2.7615 0-5 2.239-5 5z" fill="#7299d6"/><path d="m53.2393 130.747c0 2.762 2.2385 5 5 5h447.6797c2.761 0 5-2.238 5-5v-6.44c0-2.761-2.239-5-5-5h-447.6797c-2.7615 0-5 2.239-5 5z" fill="#7299d6"/><path d="m53.2393 96.7273c0 2.7614 2.2385 4.9997 5 4.9997h447.6797c2.761 0 5-2.2383 5-4.9997v-6.4399c0-2.7615-2.239-5-5-5h-447.6797c-2.7615 0-5 2.2385-5 5z" fill="#7299d6"/><path d="m343.4 40.0678c0 2.7614 2.239 5 5 5h140.48c2.761 0 5-2.2386 5-5v-6.44c0-2.7614-2.239-5-5-5h-140.48c-2.761 0-5 2.2386-5 5z" fill="#7299d6"/><path d="m343.4 12.5086c0 2.7614 2.239 5 5 5h140.48c2.761 0 5-2.2386 5-5v-6.43997c0-2.76142-2.239-5-5-5h-140.48c-2.761 0-5 2.23858-5 5z" fill="#7299d6"/><path d="m1365.04 136.626c-1.96 1.952-1.96 5.118 0 7.071l207.87 207.873c1.95 1.952 5.12 1.952 7.07 0l4.55-4.554c1.96-1.953 1.96-5.118 0-7.071l-207.87-207.873c-1.95-1.952-5.12-1.952-7.07 0z" fill="#7299d6"/><path d="m1338.02 151.384c-1.96 1.952-1.96 5.118 0 7.071l219.99 219.997c1.96 1.953 5.12 1.953 7.07 0l4.56-4.553c1.95-1.953 1.95-5.119 0-7.071l-220-219.998c-1.95-1.953-5.12-1.953-7.07 0z" fill="#7299d6"/><path d="m1323.45 178.592c-1.95 1.953-1.95 5.118 0 7.071l38.87 38.869c1.95 1.952 5.11 1.952 7.07 0l4.55-4.554c1.95-1.952 1.95-5.118 0-7.071l-38.87-38.869c-1.95-1.952-5.12-1.952-7.07 0z" fill="#7299d6"/><path d="m1383.61 238.754c-1.95 1.952-1.95 5.118 0 7.071l147.52 147.522c1.95 1.953 5.12 1.953 7.07 0l4.56-4.554c1.95-1.952 1.95-5.118 0-7.071l-147.53-147.522c-1.95-1.953-5.11-1.953-7.07 0z" fill="#7299d6"/><path d="m1308.37 205.288c-1.96 1.953-1.96 5.119 0 7.071l195.85 195.851c1.95 1.953 5.12 1.953 7.07 0l4.55-4.553c1.95-1.953 1.96-5.119 0-7.071l-195.85-195.851c-1.95-1.953-5.12-1.953-7.07 0z" fill="#7299d6"/><path d="m1305.56 244.259c-1.95 1.953-1.95 5.119 0 7.071l171.75 171.748c1.95 1.952 5.12 1.952 7.07 0l4.55-4.554c1.95-1.953 1.95-5.119 0-7.071l-171.75-171.747c-1.95-1.953-5.11-1.953-7.07 0z" fill="#7299d6"/><path d="m1290.77 271.247c-1.95 1.953-1.95 5.119 0 7.071l147.55 147.545c1.95 1.952 5.11 1.952 7.07 0l4.55-4.554c1.95-1.953 1.95-5.118 0-7.071l-147.54-147.545c-1.96-1.952-5.12-1.952-7.08 0z" fill="#7299d6"/><path d="m1275.94 298.195c-1.95 1.952-1.95 5.118 0 7.071l135.41 135.405c1.95 1.953 5.11 1.953 7.07 0l4.55-4.554c1.95-1.952 1.95-5.118 0-7.071l-135.4-135.405c-1.96-1.953-5.12-1.953-7.08 0z" fill="#7299d6"/><path d="m1261.05 325.085c-1.95 1.953-1.95 5.118 0 7.071l123.39 123.389c1.96 1.953 5.12 1.953 7.07 0l4.56-4.553c1.95-1.953 1.95-5.119 0-7.071l-123.39-123.39c-1.95-1.952-5.12-1.952-7.07 0z" fill="#7299d6"/><path d="m1246.16 351.969c-1.95 1.953-1.95 5.119 0 7.071l111.36 111.355c1.95 1.953 5.11 1.953 7.07 0l4.55-4.553c1.95-1.953 1.95-5.119 0-7.071l-111.35-111.356c-1.96-1.952-5.12-1.952-7.08.001z" fill="#7299d6"/><path d="m1231.29 378.877c-1.95 1.952-1.95 5.118 0 7.071l99.29 99.29c1.95 1.953 5.12 1.953 7.07 0l4.56-4.553c1.95-1.953 1.95-5.119 0-7.071l-99.29-99.291c-1.96-1.953-5.12-1.953-7.08 0z" fill="#7299d6"/><path d="m1228.56 417.918c-1.96 1.953-1.96 5.119 0 7.071l63.07 63.078c1.95 1.952 5.12 1.952 7.07 0l4.56-4.554c1.95-1.953 1.95-5.119 0-7.071l-63.08-63.077c-1.95-1.953-5.12-1.953-7.07 0z" fill="#7299d6"/><path d="m1213.65 444.789c-1.95 1.953-1.95 5.118 0 7.071l51.02 51.026c1.96 1.953 5.12 1.953 7.08 0l4.55-4.554c1.95-1.952 1.95-5.118 0-7.071l-51.03-51.026c-1.95-1.952-5.11-1.952-7.07 0z" fill="#7299d6"/><path d="m1198.82 471.738c-1.95 1.953-1.95 5.119 0 7.071l38.93 38.934c1.96 1.953 5.12 1.953 7.08 0l4.55-4.554c1.95-1.952 1.95-5.118 0-7.071l-38.93-38.933c-1.96-1.953-5.12-1.953-7.08 0z" fill="#7299d6"/><path d="m1184.02 498.715c-1.95 1.953-1.95 5.119 0 7.071l26.78 26.785c1.96 1.953 5.12 1.953 7.08 0l4.55-4.553c1.95-1.953 1.95-5.119 0-7.072l-26.79-26.784c-1.95-1.953-5.11-1.953-7.07 0z" fill="#7299d6"/><path d="m309.319 2512.05c0-2.76 2.239-5 5-5h174.56c2.761 0 5 2.24 5 5v6.44c0 2.77-2.239 5-5 5h-174.56c-2.761 0-5-2.23-5-5z" fill="#7299d6"/><path d="m53.2393 2324.85c0-2.76 2.2385-5 5-5h225.6797c2.761 0 5 2.24 5 5v6.44c0 2.77-2.239 5-5 5h-225.6797c-2.7615 0-5-2.23-5-5z" fill="#7299d6"/><path d="m309.319 2356.05c0-2.76 2.239-5 5-5h174.56c2.761 0 5 2.24 5 5v6.44c0 2.77-2.239 5-5 5h-174.56c-2.761 0-5-2.23-5-5z" fill="#7299d6"/><path d="m309.319 2543.25c0-2.76 2.239-5 5-5h174.56c2.761 0 5 2.24 5 5v6.44c0 2.77-2.239 5-5 5h-174.56c-2.761 0-5-2.23-5-5z" fill="#7299d6"/><path d="m309.319 2387.25c0-2.76 2.239-5 5-5h174.56c2.761 0 5 2.24 5 5v6.44c0 2.77-2.239 5-5 5h-174.56c-2.761 0-5-2.23-5-5z" fill="#7299d6"/><path d="m309.319 2574.45c0-2.76 2.239-5 5-5h174.56c2.761 0 5 2.24 5 5v6.44c0 2.77-2.239 5-5 5h-174.56c-2.761 0-5-2.23-5-5z" fill="#7299d6"/><path d="m309.319 2418.45c0-2.76 2.239-5 5-5h174.56c2.761 0 5 2.24 5 5v6.44c0 2.77-2.239 5-5 5h-174.56c-2.761 0-5-2.23-5-5z" fill="#7299d6"/><path d="m309.319 2605.65c0-2.76 2.239-5 5-5h174.56c2.761 0 5 2.24 5 5v6.44c0 2.77-2.239 5-5 5h-174.56c-2.761 0-5-2.23-5-5z" fill="#7299d6"/><path d="m309.319 2449.65c0-2.76 2.239-5 5-5h174.56c2.761 0 5 2.24 5 5v6.44c0 2.77-2.239 5-5 5h-174.56c-2.761 0-5-2.23-5-5z" fill="#7299d6"/><path d="m309.319 2636.85c0-2.76 2.239-5 5-5h174.56c2.761 0 5 2.24 5 5v6.44c0 2.77-2.239 5-5 5h-174.56c-2.761 0-5-2.23-5-5z" fill="#7299d6"/><path d="m309.319 2480.85c0-2.76 2.239-5 5-5h174.56c2.761 0 5 2.24 5 5v6.44c0 2.77-2.239 5-5 5h-174.56c-2.761 0-5-2.23-5-5z" fill="#7299d6"/><path d="m309.319 2668.05c0-2.76 2.239-5 5-5h174.56c2.761 0 5 2.24 5 5v6.44c0 2.77-2.239 5-5 5h-174.56c-2.761 0-5-2.23-5-5z" fill="#7299d6"/><path d="m53.2393 2512.05c0-2.76 2.2385-5 5-5h225.6797c2.761 0 5 2.24 5 5v6.44c0 2.77-2.239 5-5 5h-225.6797c-2.7615 0-5-2.23-5-5z" fill="#7299d6"/><path d="m53.2393 2543.25c0-2.76 2.2385-5 5-5h225.6797c2.761 0 5 2.24 5 5v6.44c0 2.77-2.239 5-5 5h-225.6797c-2.7615 0-5-2.23-5-5z" fill="#7299d6"/><path d="m53.2393 2356.05c0-2.76 2.2385-5 5-5h225.6797c2.761 0 5 2.24 5 5v6.44c0 2.77-2.239 5-5 5h-225.6797c-2.7615 0-5-2.23-5-5z" fill="#7299d6"/><path d="m53.2393 2574.45c0-2.76 2.2385-5 5-5h225.6797c2.761 0 5 2.24 5 5v6.44c0 2.77-2.239 5-5 5h-225.6797c-2.7615 0-5-2.23-5-5z" fill="#7299d6"/><path d="m53.2393 2387.25c0-2.76 2.2385-5 5-5h225.6797c2.761 0 5 2.24 5 5v6.44c0 2.77-2.239 5-5 5h-225.6797c-2.7615 0-5-2.23-5-5z" fill="#7299d6"/><path d="m53.2393 2605.65c0-2.76 2.2385-5 5-5h225.6797c2.761 0 5 2.24 5 5v6.44c0 2.77-2.239 5-5 5h-225.6797c-2.7615 0-5-2.23-5-5z" fill="#7299d6"/><path d="m53.2393 2418.45c0-2.76 2.2385-5 5-5h225.6797c2.761 0 5 2.24 5 5v6.44c0 2.77-2.239 5-5 5h-225.6797c-2.7615 0-5-2.23-5-5z" fill="#7299d6"/><path d="m53.2393 2636.85c0-2.76 2.2385-5 5-5h225.6797c2.761 0 5 2.24 5 5v6.44c0 2.77-2.239 5-5 5h-225.6797c-2.7615 0-5-2.23-5-5z" fill="#7299d6"/><path d="m53.2393 2449.65c0-2.76 2.2385-5 5-5h225.6797c2.761 0 5 2.24 5 5v6.44c0 2.77-2.239 5-5 5h-225.6797c-2.7615 0-5-2.23-5-5z" fill="#7299d6"/><path d="m53.2393 2668.05c0-2.76 2.2385-5 5-5h225.6797c2.761 0 5 2.24 5 5v6.44c0 2.77-2.239 5-5 5h-225.6797c-2.7615 0-5-2.23-5-5z" fill="#7299d6"/><path d="m53.2393 2480.85c0-2.76 2.2385-5 5-5h225.6797c2.761 0 5 2.24 5 5v6.44c0 2.77-2.239 5-5 5h-225.6797c-2.7615 0-5-2.23-5-5z" fill="#7299d6"/><path d="m309.319 2324.85c0-2.76 2.239-5 5-5h174.56c2.761 0 5 2.24 5 5v6.44c0 2.77-2.239 5-5 5h-174.56c-2.761 0-5-2.23-5-5z" fill="#7299d6"/><path d="m309.319 563.573c0 2.762 2.239 5 5 5h174.56c2.761 0 5-2.238 5-5v-6.44c0-2.761-2.239-5-5-5h-174.56c-2.761 0-5 2.239-5 5z" fill="#7299d6"/><path d="m53.2393 750.773c0 2.762 2.2385 5 5 5h225.6797c2.761 0 5-2.238 5-5v-6.44c0-2.761-2.239-5-5-5h-225.6797c-2.7615 0-5 2.239-5 5z" fill="#7299d6"/><path d="m309.319 719.573c0 2.762 2.239 5 5 5h174.56c2.761 0 5-2.238 5-5v-6.44c0-2.761-2.239-5-5-5h-174.56c-2.761 0-5 2.239-5 5z" fill="#7299d6"/><path d="m309.319 532.373c0 2.762 2.239 5 5 5h174.56c2.761 0 5-2.238 5-5v-6.439c0-2.762-2.239-5-5-5h-174.56c-2.761 0-5 2.238-5 5z" fill="#7299d6"/><path d="m309.319 688.373c0 2.762 2.239 5 5 5h174.56c2.761 0 5-2.238 5-5v-6.44c0-2.761-2.239-5-5-5h-174.56c-2.761 0-5 2.239-5 5z" fill="#7299d6"/><path d="m309.319 501.173c0 2.762 2.239 5 5 5h174.56c2.761 0 5-2.238 5-5v-6.439c0-2.762-2.239-5-5-5h-174.56c-2.761 0-5 2.238-5 5z" fill="#7299d6"/><path d="m309.319 657.173c0 2.762 2.239 5 5 5h174.56c2.761 0 5-2.238 5-5v-6.439c0-2.762-2.239-5-5-5h-174.56c-2.761 0-5 2.238-5 5z" fill="#7299d6"/><path d="m309.319 469.974c0 2.761 2.239 5 5 5h174.56c2.761 0 5-2.239 5-5v-6.44c0-2.762-2.239-5-5-5h-174.56c-2.761 0-5 2.238-5 5z" fill="#7299d6"/><path d="m309.319 625.973c0 2.762 2.239 5 5 5h174.56c2.761 0 5-2.238 5-5v-6.44c0-2.761-2.239-5-5-5h-174.56c-2.761 0-5 2.239-5 5z" fill="#7299d6"/><path d="m309.319 438.773c0 2.762 2.239 5 5 5h174.56c2.761 0 5-2.238 5-5v-6.44c0-2.761-2.239-5-5-5h-174.56c-2.761 0-5 2.239-5 5z" fill="#7299d6"/><path d="m309.319 594.773c0 2.762 2.239 5 5 5h174.56c2.761 0 5-2.238 5-5v-6.44c0-2.761-2.239-5-5-5h-174.56c-2.761 0-5 2.239-5 5z" fill="#7299d6"/><path d="m309.319 407.573c0 2.762 2.239 5 5 5h174.56c2.761 0 5-2.238 5-5v-6.44c0-2.761-2.239-5-5-5h-174.56c-2.761 0-5 2.239-5 5z" fill="#7299d6"/><path d="m53.2393 563.573c0 2.762 2.2385 5 5 5h225.6797c2.761 0 5-2.238 5-5v-6.44c0-2.761-2.239-5-5-5h-225.6797c-2.7615 0-5 2.239-5 5z" fill="#7299d6"/><path d="m53.2393 532.373c0 2.762 2.2385 5 5 5h225.6797c2.761 0 5-2.238 5-5v-6.44c0-2.761-2.239-5-5-5h-225.6797c-2.7615 0-5 2.239-5 5z" fill="#7299d6"/><path d="m53.2393 719.573c0 2.762 2.2385 5 5 5h225.6797c2.761 0 5-2.238 5-5v-6.44c0-2.761-2.239-5-5-5h-225.6797c-2.7615 0-5 2.239-5 5z" fill="#7299d6"/><path d="m53.2393 501.173c0 2.762 2.2385 5 5 5h225.6797c2.761 0 5-2.238 5-5v-6.44c0-2.761-2.239-5-5-5h-225.6797c-2.7615 0-5 2.239-5 5z" fill="#7299d6"/><path d="m53.2393 688.373c0 2.762 2.2385 5 5 5h225.6797c2.761 0 5-2.238 5-5v-6.44c0-2.761-2.239-5-5-5h-225.6797c-2.7615 0-5 2.239-5 5z" fill="#7299d6"/><path d="m53.2393 469.973c0 2.762 2.2385 5 5 5h225.6797c2.761 0 5-2.238 5-5v-6.44c0-2.761-2.239-5-5-5h-225.6797c-2.7615 0-5 2.239-5 5z" fill="#7299d6"/><path d="m53.2393 657.173c0 2.762 2.2385 5 5 5h225.6797c2.761 0 5-2.238 5-5v-6.44c0-2.761-2.239-5-5-5h-225.6797c-2.7615 0-5 2.239-5 5z" fill="#7299d6"/><path d="m53.2393 438.773c0 2.762 2.2385 5 5 5h225.6797c2.761 0 5-2.238 5-5v-6.44c0-2.761-2.239-5-5-5h-225.6797c-2.7615 0-5 2.239-5 5z" fill="#7299d6"/><path d="m53.2393 625.973c0 2.762 2.2385 5 5 5h225.6797c2.761 0 5-2.238 5-5v-6.44c0-2.761-2.239-5-5-5h-225.6797c-2.7615 0-5 2.239-5 5z" fill="#7299d6"/><path d="m53.2393 407.573c0 2.762 2.2385 5 5 5h225.6797c2.761 0 5-2.238 5-5v-6.44c0-2.761-2.239-5-5-5h-225.6797c-2.7615 0-5 2.239-5 5z" fill="#7299d6"/><path d="m53.2393 594.773c0 2.762 2.2385 5 5 5h225.6797c2.761 0 5-2.238 5-5v-6.44c0-2.761-2.239-5-5-5h-225.6797c-2.7615 0-5 2.239-5 5z" fill="#7299d6"/><path d="m309.319 750.773c0 2.762 2.239 5 5 5h174.56c2.761 0 5-2.238 5-5v-6.44c0-2.761-2.239-5-5-5h-174.56c-2.761 0-5 2.239-5 5z" fill="#7299d6"/><path d="m599.96 1687c0 2.76 2.239 5 5 5h6.439c2.762 0 5-2.24 5-5v-299.72c0-2.76-2.238-5-5-5h-6.439c-2.761 0-5 2.24-5 5z" fill="#7299d6"/><path d="m632.806 1705.36c0 2.76 2.238 5 5 5h6.439c2.762 0 5-2.24 5-5v-336.56c0-2.76-2.238-5-5-5h-6.439c-2.762 0-5 2.24-5 5z" fill="#7299d6"/><path d="m665.651 1705.36c0 2.76 2.239 5 5 5h6.44c2.761 0 5-2.24 5-5v-336.56c0-2.76-2.239-5-5-5h-6.44c-2.761 0-5 2.24-5 5z" fill="#7299d6"/><path d="m698.497 1705.36c0 2.76 2.239 5 5 5h6.44c2.761 0 5-2.24 5-5v-336.56c0-2.76-2.239-5-5-5h-6.44c-2.761 0-5 2.24-5 5z" fill="#7299d6"/><path d="m731.343 1705.36c0 2.76 2.238 5 5 5h6.439c2.762 0 5-2.24 5-5v-336.56c0-2.76-2.238-5-5-5h-6.439c-2.762 0-5 2.24-5 5z" fill="#7299d6"/><path d="m764.188 1705.36c0 2.76 2.239 5 5 5h6.44c2.761 0 5-2.24 5-5v-336.56c0-2.76-2.239-5-5-5h-6.44c-2.761 0-5 2.24-5 5z" fill="#7299d6"/><path d="m797.034 1502.56c0 2.76 2.239 5 5 5h6.44c2.761 0 5-2.24 5-5v-133.76c0-2.76-2.239-5-5-5h-6.44c-2.761 0-5 2.24-5 5z" fill="#7299d6"/><path d="m797.034 1705.48c0 2.76 2.239 5 5 5h6.44c2.761 0 5-2.24 5-5v-133.76c0-2.76-2.239-5-5-5h-6.44c-2.761 0-5 2.24-5 5z" fill="#7299d6"/><path d="m797.034 1889.92c0 2.76 2.239 5 5 5h6.44c2.761 0 5-2.24 5-5v-133.76c0-2.76-2.239-5-5-5h-6.44c-2.761 0-5 2.24-5 5z" fill="#7299d6"/><path d="m796.915 1184.12c0-2.76 2.239-5 5-5h6.439c2.762 0 5 2.24 5 5v133.76c0 2.76-2.238 5-5 5h-6.439c-2.761 0-5-2.24-5-5z" fill="#7299d6"/><path d="m764.188 1852.96c0 2.76 2.239 5 5 5h6.44c2.761 0 5-2.24 5-5v-96.8c0-2.76-2.239-5-5-5h-6.44c-2.761 0-5 2.24-5 5z" fill="#7299d6"/><path d="m764.069 1221.08c0-2.76 2.239-5 5-5h6.44c2.761 0 5 2.24 5 5v96.8c0 2.76-2.239 5-5 5h-6.44c-2.761 0-5-2.24-5-5z" fill="#7299d6"/><path d="m731.343 1816.12c0 2.76 2.238 5 5 5h6.439c2.762 0 5-2.24 5-5v-59.96c0-2.76-2.238-5-5-5h-6.439c-2.762 0-5 2.24-5 5z" fill="#7299d6"/><path d="m731.224 1257.92c0-2.76 2.238-5 5-5h6.439c2.762 0 5 2.24 5 5v59.96c0 2.76-2.238 5-5 5h-6.439c-2.762 0-5-2.24-5-5z" fill="#7299d6"/><path d="m698.497 1779.16c0 2.76 2.239 5 5 5h6.44c2.761 0 5-2.24 5-5v-23c0-2.76-2.239-5-5-5h-6.44c-2.761 0-5 2.24-5 5z" fill="#7299d6"/><path d="m698.479 1294.88c0-2.76 2.239-5 5-5h6.44c2.761 0 5 2.24 5 5v23c0 2.76-2.239 5-5 5h-6.44c-2.761 0-5-2.24-5-5z" fill="#7299d6"/><path d="m829.88 1502.56c0 2.76 2.238 5 5 5h6.439c2.762 0 5-2.24 5-5v-133.76c0-2.76-2.238-5-5-5h-6.439c-2.762 0-5 2.24-5 5z" fill="#7299d6"/><path d="m829.88 1705.48c0 2.76 2.238 5 5 5h6.439c2.762 0 5-2.24 5-5v-133.76c0-2.76-2.238-5-5-5h-6.439c-2.762 0-5 2.24-5 5z" fill="#7299d6"/><path d="m829.88 1908.28c0 2.76 2.238 5 5 5h6.439c2.762 0 5-2.24 5-5v-115.16c0-2.76-2.238-5-5-5h-6.439c-2.762 0-5 2.24-5 5z" fill="#7299d6"/><path d="m829.881 1165.88c0-2.76 2.238-5 5-5h6.439c2.762 0 5 2.24 5 5v152.12c0 2.76-2.238 5-5 5h-6.439c-2.762 0-5-2.24-5-5z" fill="#7299d6"/><path d="m94.2506 2104.45c1.9526 1.95 5.1184 1.95 7.0714 0l199.012-199.01c1.953-1.95 1.953-5.12 0-7.07l-4.525-4.53c-1.953-1.95-5.119-1.95-7.071 0l-199.0129 199.01c-1.9526 1.96-1.9526 5.12 0 7.08z" fill="#7299d6"/><path d="m114.272 2177.3c1.953 1.96 5.119 1.96 7.071 0l225.428-225.42c1.953-1.96 1.953-5.12 0-7.07l-4.525-4.53c-1.953-1.95-5.119-1.95-7.071 0l-225.428 225.43c-1.953 1.95-1.953 5.12 0 7.07z" fill="#7299d6"/><path d="m236.189 2194.7c1.953 1.95 5.119 1.95 7.071 0l173.169-173.17c1.952-1.95 1.952-5.12 0-7.07l-4.526-4.52c-1.952-1.96-5.118-1.96-7.071 0l-173.168 173.17c-1.953 1.95-1.953 5.11 0 7.07z" fill="#7299d6"/><path d="m371.066 2199.14c1.953 1.95 5.118 1.95 7.071 0l107.948-107.95c1.953-1.95 1.953-5.12 0-7.07l-4.525-4.53c-1.953-1.95-5.118-1.95-7.071 0l-107.948 107.95c-1.953 1.96-1.953 5.12 0 7.07z" fill="#7299d6"/><path d="m470.124 2192.96c1.952 1.95 5.118 1.95 7.071 0l55.328-55.33c1.953-1.95 1.953-5.12 0-7.07l-4.525-4.53c-1.953-1.95-5.119-1.95-7.072 0l-55.328 55.33c-1.952 1.95-1.952 5.12 0 7.07z" fill="#7299d6"/><path d="m104.132 2141.01c1.953 1.95 5.119 1.95 7.072 0l212.348-212.35c1.953-1.96 1.953-5.12 0-7.07l-4.525-4.53c-1.953-1.95-5.119-1.95-7.071 0l-212.349 212.35c-1.9527 1.95-1.9527 5.12 0 7.07z" fill="#7299d6"/><path d="m187.127 2197.33c1.952 1.95 5.118 1.95 7.071 0l199.012-199.02c1.953-1.95 1.953-5.11 0-7.07l-4.525-4.52c-1.953-1.95-5.119-1.95-7.071 0l-199.013 199.01c-1.953 1.95-1.953 5.12 0 7.07z" fill="#7299d6"/><path d="m334.828 2188.94c1.952 1.95 5.118 1.95 7.071 0l120.968-120.97c1.953-1.95 1.953-5.12 0-7.07l-4.525-4.53c-1.953-1.95-5.119-1.95-7.071 0l-120.969 120.97c-1.952 1.96-1.952 5.12 0 7.07z" fill="#7299d6"/><path d="m137.551 2200.46c1.953 1.96 5.119 1.96 7.071 0l225.369-225.36c1.953-1.96 1.953-5.12 0-7.08l-4.525-4.52c-1.953-1.95-5.119-1.95-7.071 0l-225.369 225.37c-1.953 1.95-1.953 5.12 0 7.07z" fill="#7299d6"/><path d="m285.508 2191.82c1.953 1.95 5.119 1.95 7.071 0l147.069-147.07c1.953-1.95 1.953-5.12 0-7.07l-4.525-4.52c-1.953-1.96-5.119-1.96-7.072 0l-147.068 147.06c-1.953 1.96-1.953 5.12 0 7.08z" fill="#7299d6"/><path d="m420.564 2196.08c1.953 1.95 5.119 1.95 7.071 0l81.669-81.67c1.953-1.95 1.953-5.12 0-7.07l-4.526-4.53c-1.952-1.95-5.118-1.95-7.071 0l-81.668 81.67c-1.953 1.96-1.953 5.12 0 7.07z" fill="#7299d6"/><path d="m519.382 2190.14c1.953 1.95 5.119 1.95 7.072 0l29.288-29.29c1.953-1.96 1.953-5.12 0-7.07l-4.525-4.53c-1.953-1.95-5.118-1.95-7.071 0l-29.289 29.29c-1.953 1.95-1.953 5.12 0 7.07z" fill="#7299d6"/><path d="m381.34 1817.36c1.953 1.95 5.119 1.95 7.072 0l120.728-120.73c1.953-1.95 1.953-5.12 0-7.07l-4.525-4.52c-1.953-1.96-5.119-1.96-7.071 0l-120.729 120.72c-1.953 1.96-1.953 5.12 0 7.08z" fill="#7299d6"/><path d="m388.665 1903.06c1.952 1.95 5.118 1.95 7.071 0l159.849-159.85c1.952-1.96 1.952-5.12 0-7.07l-4.526-4.53c-1.952-1.95-5.118-1.95-7.071 0l-159.849 159.85c-1.952 1.95-1.952 5.12 0 7.07z" fill="#7299d6"/><path d="m458.43 1972.82c1.953 1.95 5.119 1.95 7.071 0l159.849-159.85c1.953-1.95 1.953-5.12 0-7.07l-4.525-4.52c-1.953-1.96-5.119-1.96-7.071 0l-159.849 159.85c-1.953 1.95-1.953 5.11 0 7.07z" fill="#7299d6"/><path d="m528.196 2042.59c1.953 1.95 5.118 1.95 7.071 0l159.849-159.85c1.953-1.95 1.953-5.12 0-7.07l-4.526-4.53c-1.952-1.95-5.118-1.95-7.071 0l-159.849 159.85c-1.952 1.95-1.952 5.12 0 7.07z" fill="#7299d6"/><path d="m597.962 2112.35c1.952 1.96 5.118 1.96 7.071 0l159.849-159.85c1.952-1.95 1.952-5.11 0-7.07l-4.526-4.52c-1.953-1.95-5.118-1.95-7.071 0l-159.849 159.85c-1.953 1.95-1.953 5.12 0 7.07z" fill="#7299d6"/><path d="m403.755 1841.46c1.953 1.95 5.119 1.95 7.072 0l121.569-121.57c1.952-1.96 1.952-5.12 0-7.07l-4.526-4.53c-1.952-1.95-5.118-1.95-7.071 0l-121.569 121.57c-1.953 1.95-1.953 5.12 0 7.07z" fill="#7299d6"/><path d="m435.175 1949.57c1.953 1.95 5.119 1.95 7.071 0l159.849-159.85c1.953-1.95 1.953-5.12 0-7.07l-4.525-4.53c-1.953-1.95-5.119-1.95-7.071 0l-159.849 159.85c-1.953 1.95-1.953 5.12 0 7.07z" fill="#7299d6"/><path d="m504.941 2019.33c1.953 1.96 5.118 1.96 7.071 0l159.849-159.85c1.953-1.95 1.953-5.11 0-7.07l-4.525-4.52c-1.953-1.96-5.119-1.96-7.072 0l-159.848 159.85c-1.953 1.95-1.953 5.11 0 7.07z" fill="#7299d6"/><path d="m574.707 2089.1c1.952 1.95 5.118 1.95 7.071 0l159.849-159.85c1.952-1.95 1.952-5.12 0-7.07l-4.526-4.53c-1.952-1.95-5.118-1.95-7.071 0l-159.849 159.85c-1.952 1.95-1.952 5.12 0 7.07z" fill="#7299d6"/><path d="m644.472 2158.86c1.953 1.96 5.119 1.96 7.071 0l159.849-159.85c1.953-1.95 1.953-5.11 0-7.07l-4.525-4.52c-1.953-1.95-5.119-1.95-7.071 0l-159.849 159.85c-1.953 1.95-1.953 5.12 0 7.07z" fill="#7299d6"/><path d="m667.727 2182.12c1.953 1.95 5.119 1.95 7.071 0l133.628-133.63c1.953-1.95 1.953-5.12 0-7.07l-4.525-4.53c-1.953-1.95-5.119-1.95-7.071 0l-133.628 133.63c-1.953 1.96-1.953 5.12 0 7.07z" fill="#7299d6"/><path d="m704.124 2192.23c1.952 1.96 5.118 1.96 7.071 0l94.387-94.38c1.952-1.96 1.952-5.12 0-7.08l-4.526-4.52c-1.952-1.95-5.118-1.95-7.071 0l-94.387 94.39c-1.952 1.95-1.952 5.11 0 7.07z" fill="#7299d6"/><path d="m740.399 2202.47c1.953 1.95 5.118 1.95 7.071 0l55.267-55.27c1.953-1.95 1.953-5.12 0-7.07l-4.525-4.53c-1.953-1.95-5.119-1.95-7.072 0l-55.266 55.27c-1.953 1.95-1.953 5.12 0 7.07z" fill="#7299d6"/><path d="m411.921 1926.31c1.952 1.95 5.118 1.95 7.071 0l159.849-159.85c1.952-1.95 1.952-5.12 0-7.07l-4.526-4.52c-1.953-1.96-5.118-1.96-7.071 0l-159.849 159.85c-1.953 1.95-1.953 5.11 0 7.07z" fill="#7299d6"/><path d="m481.686 1996.08c1.953 1.95 5.119 1.95 7.071 0l159.849-159.85c1.953-1.95 1.953-5.12 0-7.07l-4.525-4.53c-1.953-1.95-5.119-1.95-7.071 0l-159.849 159.85c-1.953 1.95-1.953 5.12 0 7.07z" fill="#7299d6"/><path d="m551.451 2065.84c1.952 1.96 5.118 1.96 7.071 0l159.849-159.85c1.952-1.95 1.952-5.11 0-7.07l-4.526-4.52c-1.952-1.96-5.118-1.96-7.071 0l-159.849 159.85c-1.952 1.95-1.952 5.11 0 7.07z" fill="#7299d6"/><path d="m621.217 2135.61c1.953 1.95 5.119 1.95 7.071 0l159.849-159.85c1.953-1.95 1.953-5.12 0-7.07l-4.525-4.53c-1.953-1.95-5.119-1.95-7.071 0l-159.849 159.85c-1.953 1.95-1.953 5.12 0 7.07z" fill="#7299d6"/><path d="m93.4567 970.522c1.9526-1.953 5.1184-1.953 7.0713 0l199.012 199.008c1.953 1.96 1.953 5.12 0 7.08l-4.525 4.52c-1.953 1.95-5.119 1.95-7.071 0l-199.0128-199.012c-1.9526-1.952-1.9526-5.118 0-7.071z" fill="#7299d6"/><path d="m113.478 897.668c1.953-1.952 5.119-1.952 7.071 0l225.428 225.432c1.953 1.95 1.953 5.11 0 7.07l-4.525 4.52c-1.953 1.96-5.118 1.96-7.071 0l-225.428-225.425c-1.953-1.953-1.953-5.119 0-7.071z" fill="#7299d6"/><path d="m235.395 880.271c1.953-1.953 5.119-1.953 7.071 0l173.169 173.169c1.952 1.95 1.952 5.12 0 7.07l-4.526 4.53c-1.952 1.95-5.118 1.95-7.071 0l-173.168-173.173c-1.953-1.952-1.953-5.118 0-7.071z" fill="#7299d6"/><path d="m370.272 875.833c1.953-1.952 5.119-1.952 7.071 0l107.949 107.949c1.952 1.952 1.952 5.118 0 7.071l-4.526 4.525c-1.953 1.953-5.118 1.953-7.071 0l-107.948-107.948c-1.953-1.953-1.953-5.119 0-7.071z" fill="#7299d6"/><path d="m469.33 882.015c1.952-1.952 5.118-1.952 7.071 0l55.328 55.328c1.953 1.953 1.953 5.119 0 7.072l-4.525 4.525c-1.953 1.953-5.119 1.953-7.071 0l-55.329-55.328c-1.952-1.953-1.952-5.119 0-7.071z" fill="#7299d6"/><path d="m103.338 933.967c1.953-1.953 5.119-1.953 7.072 0l212.348 212.353c1.953 1.95 1.953 5.11 0 7.07l-4.525 4.52c-1.953 1.95-5.119 1.95-7.071 0l-212.349-212.347c-1.9526-1.952-1.9526-5.118 0-7.071z" fill="#7299d6"/><path d="m186.333 877.646c1.952-1.953 5.118-1.953 7.071 0l199.012 199.014c1.953 1.95 1.953 5.12 0 7.07l-4.525 4.52c-1.953 1.96-5.119 1.96-7.071 0l-199.013-199.008c-1.952-1.952-1.952-5.118 0-7.071z" fill="#7299d6"/><path d="m334.034 886.033c1.952-1.953 5.118-1.953 7.071 0l120.968 120.967c1.953 1.95 1.953 5.12 0 7.07l-4.525 4.53c-1.953 1.95-5.119 1.95-7.071 0l-120.969-120.971c-1.952-1.952-1.952-5.118 0-7.071z" fill="#7299d6"/><path d="m136.756 874.509c1.953-1.953 5.119-1.953 7.072 0l225.368 225.371c1.953 1.95 1.953 5.12 0 7.07l-4.525 4.52c-1.953 1.96-5.119 1.96-7.071 0l-225.369-225.365c-1.953-1.953-1.953-5.118 0-7.071z" fill="#7299d6"/><path d="m284.714 883.152c1.953-1.953 5.119-1.953 7.072 0l147.068 147.068c1.953 1.95 1.953 5.12 0 7.07l-4.525 4.53c-1.953 1.95-5.119 1.95-7.071 0l-147.069-147.072c-1.953-1.952-1.953-5.118 0-7.071z" fill="#7299d6"/><path d="m419.77 878.894c1.953-1.953 5.119-1.953 7.071 0l81.669 81.669c1.953 1.952 1.953 5.118 0 7.071l-4.526 4.525c-1.952 1.953-5.118 1.953-7.071 0l-81.668-81.669c-1.953-1.952-1.953-5.118 0-7.071z" fill="#7299d6"/><path d="m518.588 884.836c1.953-1.952 5.119-1.952 7.072 0l29.289 29.289c1.952 1.953 1.952 5.119 0 7.071l-4.526 4.526c-1.953 1.952-5.118 1.952-7.071 0l-29.289-29.289c-1.953-1.953-1.953-5.119 0-7.071z" fill="#7299d6"/><path d="m341.361 1218.43c1.953-1.96 5.118-1.96 7.071 0l159.546 159.54c1.952 1.96 1.952 5.12 0 7.07l-4.526 4.53c-1.952 1.95-5.118 1.95-7.071 0l-159.546-159.55c-1.952-1.95-1.952-5.12 0-7.07z" fill="#7299d6"/><path d="m387.872 1171.92c1.952-1.96 5.118-1.96 7.071 0l159.849 159.85c1.952 1.95 1.952 5.11 0 7.07l-4.526 4.52c-1.952 1.95-5.118 1.95-7.071 0l-159.849-159.85c-1.952-1.95-1.952-5.12 0-7.07z" fill="#7299d6"/><path d="m510.005 1154.52c1.953-1.95 5.119-1.95 7.072 0l107.48 107.48c1.952 1.95 1.952 5.12 0 7.07l-4.526 4.53c-1.952 1.95-5.118 1.95-7.071 0l-107.48-107.48c-1.953-1.96-1.953-5.12 0-7.07z" fill="#7299d6"/><path d="m527.402 1032.39c1.953-1.96 5.118-1.96 7.071 0l159.849 159.84c1.953 1.96 1.953 5.12 0 7.08l-4.526 4.52c-1.952 1.95-5.118 1.95-7.071 0l-159.849-159.85c-1.952-1.95-1.952-5.12 0-7.07z" fill="#7299d6"/><path d="m597.168 962.62c1.952-1.953 5.118-1.953 7.071 0l159.849 159.85c1.952 1.95 1.952 5.12 0 7.07l-4.526 4.53c-1.953 1.95-5.118 1.95-7.071 0l-159.849-159.854c-1.953-1.952-1.953-5.118 0-7.071z" fill="#7299d6"/><path d="m364.616 1195.17c1.952-1.95 5.118-1.95 7.071 0l159.848 159.85c1.953 1.95 1.953 5.12 0 7.07l-4.525 4.53c-1.953 1.95-5.119 1.95-7.071 0l-159.849-159.85c-1.952-1.95-1.952-5.12 0-7.07z" fill="#7299d6"/><path d="m486.751 1177.77c1.952-1.95 5.118-1.95 7.071 0l107.48 107.49c1.953 1.95 1.953 5.11 0 7.07l-4.526 4.52c-1.952 1.95-5.118 1.95-7.071 0l-107.48-107.48c-1.953-1.95-1.953-5.12 0-7.07z" fill="#7299d6"/><path d="m504.147 1055.64c1.953-1.95 5.119-1.95 7.071 0l159.849 159.85c1.953 1.95 1.953 5.12 0 7.07l-4.525 4.53c-1.953 1.95-5.119 1.95-7.071 0l-159.849-159.85c-1.953-1.96-1.953-5.12 0-7.07z" fill="#7299d6"/><path d="m573.913 985.875c1.952-1.953 5.118-1.953 7.071 0l159.849 159.845c1.952 1.96 1.952 5.12 0 7.07l-4.526 4.53c-1.952 1.95-5.118 1.95-7.071 0l-159.849-159.849c-1.952-1.952-1.952-5.118 0-7.071z" fill="#7299d6"/><path d="m643.678 916.109c1.953-1.952 5.119-1.952 7.071 0l159.849 159.851c1.953 1.95 1.953 5.12 0 7.07l-4.525 4.52c-1.953 1.96-5.119 1.96-7.071 0l-159.849-159.844c-1.953-1.953-1.953-5.119 0-7.071z" fill="#7299d6"/><path d="m666.933 892.854c1.953-1.952 5.119-1.952 7.071 0l133.628 133.626c1.953 1.95 1.953 5.12 0 7.07l-4.525 4.53c-1.953 1.95-5.119 1.95-7.071 0l-133.628-133.629c-1.953-1.953-1.953-5.119 0-7.071z" fill="#7299d6"/><path d="m703.33 882.74c1.952-1.952 5.118-1.952 7.071 0l94.387 94.387c1.952 1.953 1.952 5.119 0 7.071l-4.526 4.526c-1.952 1.953-5.118 1.953-7.071 0l-94.387-94.387c-1.952-1.953-1.952-5.119 0-7.071z" fill="#7299d6"/><path d="m739.605 872.505c1.953-1.952 5.119-1.952 7.071 0l55.267 55.267c1.953 1.953 1.953 5.119 0 7.071l-4.525 4.526c-1.953 1.952-5.119 1.952-7.072 0l-55.266-55.267c-1.953-1.953-1.953-5.119 0-7.071z" fill="#7299d6"/><path d="m411.127 1148.66c1.952-1.95 5.118-1.95 7.071 0l159.849 159.85c1.952 1.95 1.952 5.12 0 7.07l-4.526 4.53c-1.953 1.95-5.118 1.95-7.071 0l-159.849-159.85c-1.953-1.95-1.953-5.12 0-7.07z" fill="#7299d6"/><path d="m480.892 1078.9c1.953-1.96 5.119-1.96 7.071 0l159.849 159.84c1.953 1.96 1.953 5.12 0 7.08l-4.525 4.52c-1.953 1.95-5.119 1.95-7.071 0l-159.849-159.85c-1.953-1.95-1.953-5.12 0-7.07z" fill="#7299d6"/><path d="m550.658 1009.13c1.952-1.95 5.118-1.95 7.071 0l159.849 159.85c1.952 1.95 1.952 5.12 0 7.07l-4.526 4.53c-1.952 1.95-5.118 1.95-7.071 0l-159.849-159.85c-1.952-1.96-1.952-5.12 0-7.07z" fill="#7299d6"/><path d="m620.423 939.365c1.953-1.953 5.119-1.953 7.072 0l159.848 159.845c1.953 1.96 1.953 5.12 0 7.07l-4.525 4.53c-1.953 1.95-5.118 1.95-7.071 0l-159.849-159.849c-1.953-1.953-1.953-5.118 0-7.071z" fill="#7299d6"/></g><path d="m176.729 1885.69h-169.95459c-2.76142 0-5-2.24-5-5v-685.75c0-2.76 2.23858-5 5-5h169.95459c1.327 0 2.6.52 3.537 1.46l275.647 275.86c.937.94 1.463 2.21 1.463 3.54v134.03c0 1.33-.526 2.6-1.463 3.53l-275.647 275.87c-.937.93-2.21 1.46-3.537 1.46z" stroke="#9e9e9e" stroke-width="2"/><path d="m442.396 1621.93h66.753c1.105 0 2-.9 2-2v-164.32c0-1.1-.895-2-2-2h-66.753m14.978 150.37h15.875c1.104 0 2-.9 2-2v-128.42c0-1.1-.896-2-2-2h-15.875m-6.014 141.32h39.839c1.105 0 2-.89 2-2v-146.22c0-1.11-.895-2-2-2h-39.839" stroke="#9e9e9e" stroke-width="2"/></svg>