<svg enable-background="new 0 0 328.4 328.4" viewBox="0 0 328.4 328.4" xmlns="http://www.w3.org/2000/svg" xmlns:xlink="http://www.w3.org/1999/xlink"><linearGradient id="a" gradientUnits="userSpaceOnUse" x1="102.545" x2="407.185" y1="104.105" y2="408.7451"><stop offset="0" stop-color="#0af"/><stop offset="1" stop-color="#00dcff"/></linearGradient><g transform="translate(-77.4 -79.03)"><path d="m404.4 264.5c11.8-89.9-51.5-172.4-141.4-184.1s-172.4 51.5-184.2 141.4 51.5 172.4 141.4 184.2c7.1.9 14.2 1.4 21.3 1.4h151.3c2 0 3.7-1.6 3.7-3.7 0-1.2-.6-2.3-1.5-3-50.3-35.8 5-78.2 9.4-136.2z" fill="url(#a)"/><path d="m261 260.2h-38.8v53.8h-47.6v-141.6h47.4v48h38.8v-48h47.8v141.6h-47.6z" fill="#fff"/></g></svg>